<svg id="visual" viewBox="0 0 1920 500" width="1920" height="500" xmlns="http://www.w3.org/2000/svg" xmlns:xlink="http://www.w3.org/1999/xlink" version="1.1"><rect x="0" y="0" width="1920" height="500" fill="#ffffff"></rect><defs><linearGradient id="grad1_0" x1="74%" y1="0%" x2="100%" y2="100%"><stop offset="-26.799999999999997%" stop-color="#00c24d" stop-opacity="1"></stop><stop offset="126.80000000000001%" stop-color="#00c24d" stop-opacity="1"></stop></linearGradient></defs><defs><linearGradient id="grad1_1" x1="74%" y1="0%" x2="100%" y2="100%"><stop offset="-26.799999999999997%" stop-color="#00c24d" stop-opacity="1"></stop><stop offset="126.80000000000001%" stop-color="#4ecc67" stop-opacity="1"></stop></linearGradient></defs><defs><linearGradient id="grad1_2" x1="74%" y1="0%" x2="100%" y2="100%"><stop offset="-26.799999999999997%" stop-color="#73d580" stop-opacity="1"></stop><stop offset="126.80000000000001%" stop-color="#4ecc67" stop-opacity="1"></stop></linearGradient></defs><defs><linearGradient id="grad1_3" x1="74%" y1="0%" x2="100%" y2="100%"><stop offset="-26.799999999999997%" stop-color="#73d580" stop-opacity="1"></stop><stop offset="126.80000000000001%" stop-color="#92de99" stop-opacity="1"></stop></linearGradient></defs><defs><linearGradient id="grad1_4" x1="74%" y1="0%" x2="100%" y2="100%"><stop offset="-26.799999999999997%" stop-color="#afe7b2" stop-opacity="1"></stop><stop offset="126.80000000000001%" stop-color="#92de99" stop-opacity="1"></stop></linearGradient></defs><defs><linearGradient id="grad1_5" x1="74%" y1="0%" x2="100%" y2="100%"><stop offset="-26.799999999999997%" stop-color="#afe7b2" stop-opacity="1"></stop><stop offset="126.80000000000001%" stop-color="#caefcb" stop-opacity="1"></stop></linearGradient></defs><defs><linearGradient id="grad1_6" x1="74%" y1="0%" x2="100%" y2="100%"><stop offset="-26.799999999999997%" stop-color="#e5f7e5" stop-opacity="1"></stop><stop offset="126.80000000000001%" stop-color="#caefcb" stop-opacity="1"></stop></linearGradient></defs><defs><linearGradient id="grad1_7" x1="74%" y1="0%" x2="100%" y2="100%"><stop offset="-26.799999999999997%" stop-color="#e5f7e5" stop-opacity="1"></stop><stop offset="126.80000000000001%" stop-color="#ffffff" stop-opacity="1"></stop></linearGradient></defs><defs><linearGradient id="grad2_0" x1="0%" y1="0%" x2="26%" y2="100%"><stop offset="-26.799999999999997%" stop-color="#00c24d" stop-opacity="1"></stop><stop offset="126.80000000000001%" stop-color="#00c24d" stop-opacity="1"></stop></linearGradient></defs><defs><linearGradient id="grad2_1" x1="0%" y1="0%" x2="26%" y2="100%"><stop offset="-26.799999999999997%" stop-color="#4ecc67" stop-opacity="1"></stop><stop offset="126.80000000000001%" stop-color="#00c24d" stop-opacity="1"></stop></linearGradient></defs><defs><linearGradient id="grad2_2" x1="0%" y1="0%" x2="26%" y2="100%"><stop offset="-26.799999999999997%" stop-color="#4ecc67" stop-opacity="1"></stop><stop offset="126.80000000000001%" stop-color="#73d580" stop-opacity="1"></stop></linearGradient></defs><defs><linearGradient id="grad2_3" x1="0%" y1="0%" x2="26%" y2="100%"><stop offset="-26.799999999999997%" stop-color="#92de99" stop-opacity="1"></stop><stop offset="126.80000000000001%" stop-color="#73d580" stop-opacity="1"></stop></linearGradient></defs><defs><linearGradient id="grad2_4" x1="0%" y1="0%" x2="26%" y2="100%"><stop offset="-26.799999999999997%" stop-color="#92de99" stop-opacity="1"></stop><stop offset="126.80000000000001%" stop-color="#afe7b2" stop-opacity="1"></stop></linearGradient></defs><defs><linearGradient id="grad2_5" x1="0%" y1="0%" x2="26%" y2="100%"><stop offset="-26.799999999999997%" stop-color="#caefcb" stop-opacity="1"></stop><stop offset="126.80000000000001%" stop-color="#afe7b2" stop-opacity="1"></stop></linearGradient></defs><defs><linearGradient id="grad2_6" x1="0%" y1="0%" x2="26%" y2="100%"><stop offset="-26.799999999999997%" stop-color="#caefcb" stop-opacity="1"></stop><stop offset="126.80000000000001%" stop-color="#e5f7e5" stop-opacity="1"></stop></linearGradient></defs><defs><linearGradient id="grad2_7" x1="0%" y1="0%" x2="26%" y2="100%"><stop offset="-26.799999999999997%" stop-color="#ffffff" stop-opacity="1"></stop><stop offset="126.80000000000001%" stop-color="#e5f7e5" stop-opacity="1"></stop></linearGradient></defs><g transform="translate(1920, 0)"><path d="M0 500C-82.4 479.1 -164.9 458.2 -242 419.2C-319.1 380.1 -390.9 322.9 -433 250C-475.1 177.1 -487.6 88.6 -500 0L0 0Z" fill="#f2fbf2"></path><path d="M0 437.5C-72.1 419.2 -144.3 400.9 -211.7 366.8C-279.2 332.6 -342 282.5 -378.9 218.8C-415.7 155 -426.6 77.5 -437.5 0L0 0Z" fill="#d7f3d8"></path><path d="M0 375C-61.8 359.3 -123.7 343.7 -181.5 314.4C-239.3 285.1 -293.2 242.2 -324.8 187.5C-356.3 132.8 -365.7 66.4 -375 0L0 0Z" fill="#bdebbf"></path><path d="M0 312.5C-51.5 299.4 -103.1 286.4 -151.2 262C-199.4 237.6 -244.3 201.8 -270.6 156.3C-297 110.7 -304.7 55.3 -312.5 0L0 0Z" fill="#a1e2a6"></path><path d="M0 250C-41.2 239.6 -82.4 229.1 -121 209.6C-159.6 190.1 -195.5 161.4 -216.5 125C-237.6 88.6 -243.8 44.3 -250 0L0 0Z" fill="#83da8c"></path><path d="M0 187.5C-30.9 179.7 -61.8 171.8 -90.7 157.2C-119.7 142.5 -146.6 121.1 -162.4 93.8C-178.2 66.4 -182.8 33.2 -187.5 0L0 0Z" fill="#62d073"></path><path d="M0 125C-20.6 119.8 -41.2 114.6 -60.5 104.8C-79.8 95 -97.7 80.7 -108.3 62.5C-118.8 44.3 -121.9 22.1 -125 0L0 0Z" fill="#35c75a"></path><path d="M0 62.5C-10.3 59.9 -20.6 57.3 -30.2 52.4C-39.9 47.5 -48.9 40.4 -54.1 31.3C-59.4 22.1 -60.9 11.1 -62.5 0L0 0Z" fill="#00c24d"></path></g><g transform="translate(0, 500)"><path d="M0 -500C87.9 -487.2 175.7 -474.3 250 -433C324.3 -391.7 385 -321.9 424.4 -245C463.8 -168.1 481.9 -84 500 0L0 0Z" fill="#f2fbf2"></path><path d="M0 -437.5C76.9 -426.3 153.8 -415 218.7 -378.9C283.7 -342.7 336.8 -281.7 371.3 -214.4C405.8 -147.1 421.6 -73.5 437.5 0L0 0Z" fill="#d7f3d8"></path><path d="M0 -375C65.9 -365.4 131.8 -355.7 187.5 -324.8C243.2 -293.8 288.7 -241.4 318.3 -183.8C347.8 -126.1 361.4 -63 375 0L0 0Z" fill="#bdebbf"></path><path d="M0 -312.5C54.9 -304.5 109.8 -296.5 156.2 -270.6C202.7 -244.8 240.6 -201.2 265.2 -153.1C289.8 -105.1 301.2 -52.5 312.5 0L0 0Z" fill="#a1e2a6"></path><path d="M0 -250C43.9 -243.6 87.9 -237.2 125 -216.5C162.1 -195.9 192.5 -161 212.2 -122.5C231.9 -84 240.9 -42 250 0L0 0Z" fill="#83da8c"></path><path d="M0 -187.5C32.9 -182.7 65.9 -177.9 93.7 -162.4C121.6 -146.9 144.4 -120.7 159.1 -91.9C173.9 -63 180.7 -31.5 187.5 0L0 0Z" fill="#62d073"></path><path d="M0 -125C22 -121.8 43.9 -118.6 62.5 -108.3C81.1 -97.9 96.2 -80.5 106.1 -61.3C115.9 -42 120.5 -21 125 0L0 0Z" fill="#35c75a"></path><path d="M0 -62.5C11 -60.9 22 -59.3 31.2 -54.1C40.5 -49 48.1 -40.2 53 -30.6C58 -21 60.2 -10.5 62.5 0L0 0Z" fill="#00c24d"></path></g></svg>