<svg id="visual" viewBox="0 0 1920 400" width="1920" height="400" xmlns="http://www.w3.org/2000/svg" xmlns:xlink="http://www.w3.org/1999/xlink" version="1.1"><rect x="0" y="0" width="1920" height="400" fill="#ffffff"></rect><defs><linearGradient id="grad1_0" x1="79.2%" y1="100%" x2="100%" y2="0%"><stop offset="-46%" stop-color="#00c24d" stop-opacity="1"></stop><stop offset="146%" stop-color="#00c24d" stop-opacity="1"></stop></linearGradient></defs><defs><linearGradient id="grad1_1" x1="79.2%" y1="100%" x2="100%" y2="0%"><stop offset="-46%" stop-color="#00c24d" stop-opacity="1"></stop><stop offset="146%" stop-color="#4ecc67" stop-opacity="1"></stop></linearGradient></defs><defs><linearGradient id="grad1_2" x1="79.2%" y1="100%" x2="100%" y2="0%"><stop offset="-46%" stop-color="#73d580" stop-opacity="1"></stop><stop offset="146%" stop-color="#4ecc67" stop-opacity="1"></stop></linearGradient></defs><defs><linearGradient id="grad1_3" x1="79.2%" y1="100%" x2="100%" y2="0%"><stop offset="-46%" stop-color="#73d580" stop-opacity="1"></stop><stop offset="146%" stop-color="#92de99" stop-opacity="1"></stop></linearGradient></defs><defs><linearGradient id="grad1_4" x1="79.2%" y1="100%" x2="100%" y2="0%"><stop offset="-46%" stop-color="#afe7b2" stop-opacity="1"></stop><stop offset="146%" stop-color="#92de99" stop-opacity="1"></stop></linearGradient></defs><defs><linearGradient id="grad1_5" x1="79.2%" y1="100%" x2="100%" y2="0%"><stop offset="-46%" stop-color="#afe7b2" stop-opacity="1"></stop><stop offset="146%" stop-color="#caefcb" stop-opacity="1"></stop></linearGradient></defs><defs><linearGradient id="grad1_6" x1="79.2%" y1="100%" x2="100%" y2="0%"><stop offset="-46%" stop-color="#e5f7e5" stop-opacity="1"></stop><stop offset="146%" stop-color="#caefcb" stop-opacity="1"></stop></linearGradient></defs><defs><linearGradient id="grad1_7" x1="79.2%" y1="100%" x2="100%" y2="0%"><stop offset="-46%" stop-color="#e5f7e5" stop-opacity="1"></stop><stop offset="146%" stop-color="#ffffff" stop-opacity="1"></stop></linearGradient></defs><defs><linearGradient id="grad2_0" x1="0%" y1="100%" x2="20.8%" y2="0%"><stop offset="-46%" stop-color="#00c24d" stop-opacity="1"></stop><stop offset="146%" stop-color="#00c24d" stop-opacity="1"></stop></linearGradient></defs><defs><linearGradient id="grad2_1" x1="0%" y1="100%" x2="20.8%" y2="0%"><stop offset="-46%" stop-color="#4ecc67" stop-opacity="1"></stop><stop offset="146%" stop-color="#00c24d" stop-opacity="1"></stop></linearGradient></defs><defs><linearGradient id="grad2_2" x1="0%" y1="100%" x2="20.8%" y2="0%"><stop offset="-46%" stop-color="#4ecc67" stop-opacity="1"></stop><stop offset="146%" stop-color="#73d580" stop-opacity="1"></stop></linearGradient></defs><defs><linearGradient id="grad2_3" x1="0%" y1="100%" x2="20.8%" y2="0%"><stop offset="-46%" stop-color="#92de99" stop-opacity="1"></stop><stop offset="146%" stop-color="#73d580" stop-opacity="1"></stop></linearGradient></defs><defs><linearGradient id="grad2_4" x1="0%" y1="100%" x2="20.8%" y2="0%"><stop offset="-46%" stop-color="#92de99" stop-opacity="1"></stop><stop offset="146%" stop-color="#afe7b2" stop-opacity="1"></stop></linearGradient></defs><defs><linearGradient id="grad2_5" x1="0%" y1="100%" x2="20.8%" y2="0%"><stop offset="-46%" stop-color="#caefcb" stop-opacity="1"></stop><stop offset="146%" stop-color="#afe7b2" stop-opacity="1"></stop></linearGradient></defs><defs><linearGradient id="grad2_6" x1="0%" y1="100%" x2="20.8%" y2="0%"><stop offset="-46%" stop-color="#caefcb" stop-opacity="1"></stop><stop offset="146%" stop-color="#e5f7e5" stop-opacity="1"></stop></linearGradient></defs><defs><linearGradient id="grad2_7" x1="0%" y1="100%" x2="20.8%" y2="0%"><stop offset="-46%" stop-color="#ffffff" stop-opacity="1"></stop><stop offset="146%" stop-color="#e5f7e5" stop-opacity="1"></stop></linearGradient></defs><g transform="translate(1920, 400)"><path d="M-400 0C-367.7 -33.6 -335.3 -67.3 -324.3 -105.4C-313.3 -143.5 -323.6 -186 -313.9 -228.1C-304.2 -270.1 -274.5 -311.5 -235.1 -323.6C-195.8 -335.7 -146.8 -318.4 -106 -326.2C-65.2 -334 -32.6 -367 0 -400L0 0Z" fill="#f2fbf2"></path><path d="M-350 0C-321.7 -29.4 -293.4 -58.9 -283.8 -92.2C-274.1 -125.5 -283.2 -162.8 -274.7 -199.6C-266.2 -236.3 -240.2 -272.6 -205.7 -283.2C-171.3 -293.7 -128.4 -278.6 -92.7 -285.4C-57.1 -292.3 -28.5 -321.1 0 -350L0 0Z" fill="#d7f3d8"></path><path d="M-300 0C-275.7 -25.2 -251.5 -50.5 -243.2 -79C-235 -107.6 -242.7 -139.5 -235.4 -171C-228.1 -202.6 -205.8 -233.6 -176.3 -242.7C-146.8 -251.8 -110.1 -238.8 -79.5 -244.7C-48.9 -250.5 -24.5 -275.3 0 -300L0 0Z" fill="#bdebbf"></path><path d="M-250 0C-229.8 -21 -209.6 -42 -202.7 -65.9C-195.8 -89.7 -202.3 -116.3 -196.2 -142.5C-190.1 -168.8 -171.5 -194.7 -146.9 -202.3C-122.4 -209.8 -91.7 -199 -66.2 -203.9C-40.8 -208.8 -20.4 -229.4 0 -250L0 0Z" fill="#a1e2a6"></path><path d="M-200 0C-183.8 -16.8 -167.7 -33.6 -162.2 -52.7C-156.6 -71.7 -161.8 -93 -156.9 -114C-152.1 -135 -137.2 -155.8 -117.6 -161.8C-97.9 -167.8 -73.4 -159.2 -53 -163.1C-32.6 -167 -16.3 -183.5 0 -200L0 0Z" fill="#83da8c"></path><path d="M-150 0C-137.9 -12.6 -125.7 -25.2 -121.6 -39.5C-117.5 -53.8 -121.4 -69.8 -117.7 -85.5C-114.1 -101.3 -102.9 -116.8 -88.2 -121.4C-73.4 -125.9 -55 -119.4 -39.7 -122.3C-24.5 -125.3 -12.2 -137.6 0 -150L0 0Z" fill="#62d073"></path><path d="M-100 0C-91.9 -8.4 -83.8 -16.8 -81.1 -26.3C-78.3 -35.9 -80.9 -46.5 -78.5 -57C-76 -67.5 -68.6 -77.9 -58.8 -80.9C-48.9 -83.9 -36.7 -79.6 -26.5 -81.6C-16.3 -83.5 -8.2 -91.8 0 -100L0 0Z" fill="#35c75a"></path><path d="M-50 0C-46 -4.2 -41.9 -8.4 -40.5 -13.2C-39.2 -17.9 -40.5 -23.3 -39.2 -28.5C-38 -33.8 -34.3 -38.9 -29.4 -40.5C-24.5 -42 -18.3 -39.8 -13.2 -40.8C-8.2 -41.8 -4.1 -45.9 0 -50L0 0Z" fill="#00c24d"></path></g><g transform="translate(0, 0)"><path d="M400 0C383.4 36.8 366.9 73.6 358.5 116.5C350.2 159.4 350.2 208.4 323.6 235.1C297 261.9 243.9 266.4 206.3 284C168.7 301.6 146.7 332.3 115 353.8C83.2 375.3 41.6 387.7 0 400L0 0Z" fill="#f2fbf2"></path><path d="M350 0C335.5 32.2 321 64.4 313.7 101.9C306.5 139.5 306.4 182.3 283.2 205.7C259.9 229.1 213.4 233.1 180.5 248.5C147.7 263.9 128.4 290.7 100.6 309.6C72.8 328.4 36.4 339.2 0 350L0 0Z" fill="#d7f3d8"></path><path d="M300 0C287.6 27.6 275.1 55.2 268.9 87.4C262.7 119.5 262.6 156.3 242.7 176.3C222.8 196.4 182.9 199.8 154.7 213C126.6 226.2 110.1 249.2 86.2 265.3C62.4 281.5 31.2 290.7 0 300L0 0Z" fill="#bdebbf"></path><path d="M250 0C239.6 23 229.3 46 224.1 72.8C218.9 99.6 218.9 130.2 202.3 146.9C185.6 163.7 152.4 166.5 128.9 177.5C105.5 188.5 91.7 207.7 71.8 221.1C52 234.6 26 242.3 0 250L0 0Z" fill="#a1e2a6"></path><path d="M200 0C191.7 18.4 183.4 36.8 179.3 58.2C175.1 79.7 175.1 104.2 161.8 117.6C148.5 130.9 121.9 133.2 103.2 142C84.4 150.8 73.4 166.1 57.5 176.9C41.6 187.7 20.8 193.8 0 200L0 0Z" fill="#83da8c"></path><path d="M150 0C143.8 13.8 137.6 27.6 134.5 43.7C131.3 59.8 131.3 78.1 121.4 88.2C111.4 98.2 91.5 99.9 77.4 106.5C63.3 113.1 55 124.6 43.1 132.7C31.2 140.7 15.6 145.4 0 150L0 0Z" fill="#62d073"></path><path d="M100 0C95.9 9.2 91.7 18.4 89.6 29.1C87.6 39.8 87.5 52.1 80.9 58.8C74.3 65.5 61 66.6 51.6 71C42.2 75.4 36.7 83.1 28.7 88.4C20.8 93.8 10.4 96.9 0 100L0 0Z" fill="#35c75a"></path><path d="M50 0C47.9 4.6 45.9 9.2 44.8 14.6C43.8 19.9 43.8 26 40.5 29.4C37.1 32.7 30.5 33.3 25.8 35.5C21.1 37.7 18.3 41.5 14.4 44.2C10.4 46.9 5.2 48.5 0 50L0 0Z" fill="#00c24d"></path></g></svg>