<svg id="visual" viewBox="0 0 1920 1000" width="1920" height="1000" xmlns="http://www.w3.org/2000/svg" xmlns:xlink="http://www.w3.org/1999/xlink" version="1.1"><rect x="0" y="0" width="1920" height="1000" fill="#ffffff"></rect><path d="M0 412L640 110L1280 673L1920 258L1920 1001L1280 1001L640 1001L0 1001Z" fill="#e0f9e0"></path><path d="M0 625L640 580L1280 477L1920 312L1920 1001L1280 1001L640 1001L0 1001Z" fill="#abe8ae"></path><path d="M0 803L640 424L1280 580L1920 875L1920 1001L1280 1001L640 1001L0 1001Z" fill="#71d67e"></path><path d="M0 861L640 937L1280 711L1920 950L1920 1001L1280 1001L640 1001L0 1001Z" fill="#00c24d"></path></svg>