<svg width="49" height="14" viewBox="0 0 49 14" fill="none" xmlns="http://www.w3.org/2000/svg">
<path d="M1.524 3.8H0.144V2.6H4.224V3.8H2.844V11H1.524V3.8ZM4.86309 2.6H6.18309V6.02H7.59909V2.6H8.91909V11H7.59909V7.22H6.18309V11H4.86309V2.6ZM9.90216 2.6H13.5022V3.8H11.2222V6.02H13.0342V7.22H11.2222V9.8H13.5022V11H9.90216V2.6ZM16.1834 2.6H18.1754C18.8554 2.6 19.3514 2.76 19.6634 3.08C19.9754 3.392 20.1314 3.876 20.1314 4.532V4.868C20.1314 5.3 20.0594 5.652 19.9154 5.924C19.7794 6.196 19.5674 6.392 19.2794 6.512V6.536C19.9354 6.76 20.2634 7.344 20.2634 8.288V9.008C20.2634 9.656 20.0914 10.152 19.7474 10.496C19.4114 10.832 18.9154 11 18.2594 11H16.1834V2.6ZM18.0194 6.02C18.2834 6.02 18.4794 5.952 18.6074 5.816C18.7434 5.68 18.8114 5.452 18.8114 5.132V4.664C18.8114 4.36 18.7554 4.14 18.6434 4.004C18.5394 3.868 18.3714 3.8 18.1394 3.8H17.5034V6.02H18.0194ZM18.2594 9.8C18.4914 9.8 18.6634 9.74 18.7754 9.62C18.8874 9.492 18.9434 9.276 18.9434 8.972V8.24C18.9434 7.856 18.8754 7.592 18.7394 7.448C18.6114 7.296 18.3954 7.22 18.0914 7.22H17.5034V9.8H18.2594ZM21.035 2.6H24.635V3.8H22.355V6.02H24.167V7.22H22.355V9.8H24.635V11H21.035V2.6ZM25.3943 2.6H27.0503L28.3343 7.628H28.3583V2.6H29.5343V11H28.1783L26.5943 4.868H26.5703V11H25.3943V2.6ZM30.5154 2.6H32.5314C33.1874 2.6 33.6794 2.776 34.0074 3.128C34.3354 3.48 34.4994 3.996 34.4994 4.676V8.924C34.4994 9.604 34.3354 10.12 34.0074 10.472C33.6794 10.824 33.1874 11 32.5314 11H30.5154V2.6ZM32.5074 9.8C32.7234 9.8 32.8874 9.736 32.9994 9.608C33.1194 9.48 33.1794 9.272 33.1794 8.984V4.616C33.1794 4.328 33.1194 4.12 32.9994 3.992C32.8874 3.864 32.7234 3.8 32.5074 3.8H31.8354V9.8H32.5074ZM35.3904 2.6H38.9904V3.8H36.7104V6.02H38.5224V7.22H36.7104V9.8H38.9904V11H35.3904V2.6ZM39.7498 2.6H41.7058C42.3858 2.6 42.8818 2.76 43.1938 3.08C43.5058 3.392 43.6618 3.876 43.6618 4.532V5.048C43.6618 5.92 43.3738 6.472 42.7978 6.704V6.728C43.1178 6.824 43.3418 7.02 43.4698 7.316C43.6058 7.612 43.6738 8.008 43.6738 8.504V9.98C43.6738 10.22 43.6818 10.416 43.6978 10.568C43.7138 10.712 43.7538 10.856 43.8178 11H42.4738C42.4258 10.864 42.3938 10.736 42.3778 10.616C42.3618 10.496 42.3538 10.28 42.3538 9.968V8.432C42.3538 8.048 42.2898 7.78 42.1618 7.628C42.0418 7.476 41.8298 7.4 41.5258 7.4H41.0698V11H39.7498V2.6ZM41.5498 6.2C41.8138 6.2 42.0098 6.132 42.1378 5.996C42.2738 5.86 42.3418 5.632 42.3418 5.312V4.664C42.3418 4.36 42.2858 4.14 42.1738 4.004C42.0698 3.868 41.9018 3.8 41.6698 3.8H41.0698V6.2H41.5498ZM44.3257 9.824L46.7737 3.8H44.4457V2.6H48.1897V3.776L45.7417 9.8H48.1897V11H44.3257V9.824Z" fill="black"/>
</svg>
