<svg xmlns="http://www.w3.org/2000/svg" version="1.1" xmlns:xlink="http://www.w3.org/1999/xlink" xmlns:svgjs="http://svgjs.dev/svgjs" width="500" height="500"><svg width="500" height="500" viewBox="0 0 500 500" fill="none" xmlns="http://www.w3.org/2000/svg">
<rect width="500" height="500" rx="250" fill="url(#paint0_radial_62_4)"></rect>
<path d="M184.45 96H259.15C284.65 96 303.25 102 314.95 114C326.65 125.7 332.5 143.85 332.5 168.45V181.05C332.5 197.25 329.8 210.45 324.4 220.65C319.3 230.85 311.35 238.2 300.55 242.7V243.6C325.15 252 337.45 273.9 337.45 309.3V336.3C337.45 360.6 331 379.2 318.1 392.1C305.5 404.7 286.9 411 262.3 411H184.45V96ZM253.3 224.25C263.2 224.25 270.55 221.7 275.35 216.6C280.45 211.5 283 202.95 283 190.95V173.4C283 162 280.9 153.75 276.7 148.65C272.8 143.55 266.5 141 257.8 141H233.95V224.25H253.3ZM262.3 366C271 366 277.45 363.75 281.65 359.25C285.85 354.45 287.95 346.35 287.95 334.95V307.5C287.95 293.1 285.4 283.2 280.3 277.8C275.5 272.1 267.4 269.25 256 269.25H233.95V366H262.3Z" fill="white"></path>
<defs>
<radialGradient id="SvgjsRadialGradient1002" cx="0" cy="0" r="1" gradientUnits="userSpaceOnUse" gradientTransform="translate(276 314.5) rotate(34.3951) scale(507.173)">
<stop stop-color="#00F261" stop-opacity="0.521569"></stop>
<stop offset="1" stop-color="#0575E6"></stop>
</radialGradient>
</defs>
</svg><style>@media (prefers-color-scheme: light) { :root { filter: none; } }
@media (prefers-color-scheme: dark) { :root { filter: none; } }
</style></svg>