<svg width="2500" height="2500" viewBox="0 0 2500 2500" fill="none" xmlns="http://www.w3.org/2000/svg">
<g clip-path="url(#clip0_32_7)">
<path fill-rule="evenodd" clip-rule="evenodd" d="M1290.44 581.37C1475.61 581.37 1643.71 656.465 1765.35 777.473C1887.3 898.766 1962.82 1065.67 1962.82 1249.86C1962.82 1434.05 1887.31 1601.25 1765.35 1722.26C1643.71 1843.55 1475.61 1918.66 1290.44 1918.66C1105.85 1918.66 937.779 1843.55 815.824 1722.26C694.181 1601.25 618.671 1434.05 618.671 1249.86C618.671 1065.67 694.168 898.766 815.824 777.473C937.779 656.465 1105.85 581.37 1290.44 581.37Z" fill="#A88B23"/>
<path fill-rule="evenodd" clip-rule="evenodd" d="M1290.44 614.144C1466.62 614.144 1626.33 685.374 1742.28 800.727C1857.94 915.756 1929.86 1074.92 1929.86 1249.86C1929.86 1425.1 1857.94 1583.96 1742.28 1699.29C1626.34 1814.34 1466.62 1885.88 1290.44 1885.88C1114.86 1885.88 954.86 1814.34 839.196 1699.29C723.246 1583.95 651.64 1425.09 651.64 1249.86C651.64 1074.92 723.246 915.743 839.196 800.727C954.86 685.374 1114.86 614.144 1290.44 614.144Z" fill="#2F388B"/>
<path fill-rule="evenodd" clip-rule="evenodd" d="M1290.44 617.724C1465.71 617.724 1624.51 688.669 1739.6 803.114C1815.73 878.396 1871.41 971.841 1901.39 1074.62C1903.47 1071.04 1905.57 1067.77 1907.67 1064.49C1876.52 962.266 1820.18 870.479 1746.18 796.849C1629.33 680.614 1468.13 608.502 1290.44 608.502C1113.35 608.502 952.149 680.614 835.305 796.849C778.013 853.749 731.877 920.869 699.278 994.742H709.161C741.157 923.269 786.057 858.307 841.608 803.114C956.948 688.669 1115.75 617.724 1290.44 617.724ZM1925.69 1277.86C1918.46 1440.89 1848.66 1588.42 1739.6 1696.6C1624.51 1811.36 1465.71 1882.29 1290.44 1882.29C1115.75 1882.29 956.948 1811.34 841.595 1696.6C736.125 1591.71 667.217 1450.12 656.724 1293.07C653.568 1292.82 650.449 1292.22 647.425 1291.28C657.606 1451.61 727.721 1596.18 835.292 1703.18C952.149 1819.41 1113.34 1891.23 1290.43 1891.23C1468.1 1891.23 1629.31 1819.41 1746.17 1703.18C1855.83 1594.09 1926.53 1445.67 1934.63 1281.74C1931.55 1280.7 1928.56 1279.4 1925.69 1277.86ZM1290.44 583.445C1106.17 583.445 938.674 658.254 817.316 778.951C750.794 845.123 698.059 925.289 664.208 1014.11C661.931 1011.89 659.532 1009.8 657.022 1007.85C691.198 919.486 743.686 839.35 811.038 772.713C933.888 650.213 1103.78 574.496 1290.44 574.496C1477.7 574.496 1647.32 650.213 1770.45 772.713C1843.56 845.408 1900.2 934.549 1934.04 1033.78L1926.84 1040.93C1893.81 942.1 1838.09 852.38 1764.16 778.951C1642.5 658.254 1475.01 583.445 1290.44 583.445ZM1955.01 1164.02C1957.11 1178.61 1958.33 1193.83 1959.52 1208.73C1961.6 1213.2 1964.89 1217.07 1969.12 1219.77C1967.88 1192.4 1964.97 1165.13 1960.41 1138.11C1958.33 1145.26 1956.2 1154.52 1955.01 1164.02ZM1959.52 1287.11C1962.49 1287.4 1965.5 1287.4 1968.8 1287.4C1959.23 1458.48 1885.23 1613.15 1770.45 1727.3C1647.32 1849.5 1477.7 1925.49 1290.44 1925.49C1103.78 1925.49 933.875 1849.5 811.038 1727.3C691.781 1608.68 616.57 1446.86 611.784 1268.03C612.99 1269.51 616.284 1273.7 621.368 1278.17C628.567 1450.43 702.274 1606.31 817.329 1720.75C938.687 1841.73 1106.18 1916.57 1290.45 1916.57C1475.01 1916.57 1642.52 1841.73 1764.17 1720.75C1877.11 1608.39 1950.22 1455.79 1959.52 1287.11Z" fill="white"/>
<path fill-rule="evenodd" clip-rule="evenodd" d="M1069.05 1567.28V1495.3H1122.65V1693.13H1069.05V1616.78H1025.34V1693.13H971.734V1495.3H1025.34V1567.28H1069.05ZM1318.71 1590.86C1318.71 1618.55 1309.97 1645.63 1293.66 1665.73C1277.34 1686.12 1253.74 1699.23 1224.02 1699.23C1194.32 1699.23 1170.72 1686.42 1154.11 1666.6C1137.79 1646.78 1129.04 1619.39 1129.04 1590.85C1129.04 1562 1137.79 1536.66 1154.4 1518.29C1170.72 1500.25 1194.32 1489.16 1224.02 1489.16C1253.74 1489.16 1277.34 1500.54 1293.34 1519.17C1309.69 1537.55 1318.71 1562.9 1318.71 1590.86ZM1184.4 1591.17C1184.4 1602.79 1187.9 1615.35 1194.61 1624.66C1201.61 1634.27 1211.49 1640.7 1224.03 1640.7C1236.58 1640.7 1246.46 1634.27 1253.48 1624.66C1260.18 1615.35 1263.66 1602.79 1263.66 1591.17C1263.66 1579.21 1259.3 1568.43 1252.31 1560.59C1248.77 1556.57 1244.42 1553.36 1239.55 1551.14C1234.68 1548.93 1229.4 1547.77 1224.05 1547.75C1212.98 1547.75 1202.79 1552.71 1195.79 1560.59C1188.37 1569.04 1184.31 1579.92 1184.4 1591.17ZM1403.8 1693.13V1548.03H1438.45V1495.3H1315.51V1548.03H1350.17V1693.13H1403.8ZM1497.85 1548.03V1567.27H1545.08V1619.99H1497.85V1640.38H1547.68V1693.1H1444V1495.27H1547.68V1548.01H1497.85V1548.03ZM1608.89 1640.4H1669.75V1693.13H1555.28V1495.3H1608.89V1640.4Z" fill="black"/>
<path fill-rule="evenodd" clip-rule="evenodd" d="M1054.68 1552.65V1480.69H1108.29V1678.51H1054.68V1602.18H1010.98V1678.51H957.376V1480.69H1010.98V1552.65H1054.68ZM1304.34 1576.24C1304.34 1603.93 1295.6 1631.03 1279.29 1651.1C1262.97 1671.49 1239.38 1684.6 1209.65 1684.6C1179.94 1684.6 1156.35 1671.8 1139.73 1651.97C1123.43 1632.18 1114.67 1604.77 1114.67 1576.23C1114.67 1547.37 1123.42 1522.04 1140.02 1503.69C1156.35 1485.62 1179.94 1474.57 1209.65 1474.57C1239.38 1474.57 1262.97 1485.92 1278.97 1504.56C1295.33 1522.94 1304.34 1548.27 1304.34 1576.24ZM1170.04 1576.55C1170.04 1588.19 1173.53 1600.72 1180.24 1610.04C1187.24 1619.65 1197.15 1626.07 1209.66 1626.07C1222.19 1626.07 1232.1 1619.65 1239.09 1610.04C1245.81 1600.72 1249.3 1588.19 1249.3 1576.55C1249.3 1564.61 1244.93 1553.83 1237.94 1545.96C1230.95 1538.1 1220.74 1533.14 1209.68 1533.14C1198.61 1533.14 1188.42 1538.1 1181.43 1545.96C1174.01 1554.41 1169.96 1565.3 1170.04 1576.55ZM1389.41 1678.51V1533.43H1424.09V1480.69H1301.15V1533.43H1335.81V1678.51H1389.41ZM1483.52 1533.43V1552.64H1530.72V1605.36H1483.52V1625.75H1533.35V1678.48H1429.62V1480.67H1533.35V1533.4H1483.52V1533.43ZM1594.52 1625.77H1655.38V1678.51H1540.91V1480.69H1594.52V1625.77Z" fill="white"/>
<path fill-rule="evenodd" clip-rule="evenodd" d="M1060.51 1558.49V1486.52H1102.47V1672.68H1060.51V1596.34H1005.16V1672.68H963.2V1486.52H1005.16V1558.49H1060.51ZM1298.52 1576.24C1298.52 1606.25 1289.19 1631.89 1273.77 1649.96C1257.72 1668.03 1235.6 1678.81 1209.66 1678.81C1183.74 1678.81 1161.6 1668.03 1145.58 1649.96C1129.85 1631.89 1120.51 1606.27 1120.51 1576.24C1120.51 1547.99 1131 1524.09 1147.6 1507.19C1164.21 1490.29 1186.34 1480.41 1209.65 1480.41C1232.96 1480.41 1255.11 1490.3 1271.71 1507.19C1288.04 1524.1 1298.52 1547.99 1298.52 1576.24ZM1164.22 1576.24C1164.22 1592.57 1169.17 1606.25 1177.62 1616.16C1185.79 1626.07 1197.14 1631.89 1209.66 1631.89C1222.19 1631.89 1233.55 1626.07 1241.7 1616.16C1250.16 1606.25 1255.12 1592.57 1255.12 1576.24C1255.12 1563.44 1250.16 1551.18 1241.7 1542.16C1233.55 1533.13 1222.19 1527.29 1209.66 1527.29C1197.15 1527.29 1185.79 1533.12 1177.62 1542.16C1169.01 1551.42 1164.23 1563.6 1164.22 1576.24ZM1383.59 1672.68H1341.64V1527.6H1306.99V1486.52H1418.27V1527.6H1383.59V1672.68ZM1477.39 1527.6V1558.77H1524.88V1599.56H1477.39V1631.6H1527.51V1672.68H1435.77V1486.52H1527.51V1527.6H1477.39ZM1588.69 1631.6H1649.26V1672.68H1546.75V1486.52H1588.69V1631.6Z" fill="#A88B23"/>
<path fill-rule="evenodd" clip-rule="evenodd" d="M2038.43 1375.79C2033.11 1381.16 2030.43 1387.65 2030.43 1395.24C2030.43 1402.89 2033.09 1409.41 2038.38 1414.81C2043.72 1420.2 2050.21 1422.89 2057.83 1422.89C2065.46 1422.89 2071.92 1420.2 2077.26 1414.81C2079.85 1412.25 2081.89 1409.2 2083.26 1405.84C2084.63 1402.47 2085.3 1398.87 2085.24 1395.24C2085.24 1387.65 2082.58 1381.16 2077.26 1375.79C2074.75 1373.19 2071.73 1371.13 2068.39 1369.74C2065.04 1368.35 2061.45 1367.67 2057.83 1367.73C2050.26 1367.73 2043.8 1370.41 2038.43 1375.79ZM2080.43 1417.89C2077.51 1420.92 2073.99 1423.32 2070.11 1424.93C2066.22 1426.55 2062.04 1427.35 2057.83 1427.28C2053.63 1427.36 2049.45 1426.56 2045.57 1424.94C2041.69 1423.33 2038.18 1420.93 2035.27 1417.89C2032.26 1414.94 2029.89 1411.41 2028.3 1407.52C2026.7 1403.62 2025.92 1399.44 2025.99 1395.24C2025.99 1386.45 2029.11 1378.95 2035.34 1372.72C2038.26 1369.71 2041.76 1367.34 2045.63 1365.73C2049.49 1364.13 2053.65 1363.34 2057.83 1363.41C2066.65 1363.41 2074.2 1366.51 2080.43 1372.72C2086.65 1378.92 2089.78 1386.44 2089.78 1395.24C2089.78 1404.08 2086.67 1411.63 2080.43 1417.89ZM2063.84 1383.16C2062.3 1382.29 2059.81 1381.85 2056.39 1381.85H2051.13V1394.55H2056.71C2059.31 1394.55 2061.27 1394.29 2062.56 1393.76C2064.99 1392.81 2066.17 1390.98 2066.17 1388.28C2066.17 1385.73 2065.38 1384.03 2063.84 1383.16ZM2057.23 1377.64C2061.56 1377.64 2064.75 1378.05 2066.77 1378.89C2070.39 1380.41 2072.19 1383.37 2072.19 1387.78C2072.19 1390.9 2071.05 1393.21 2068.77 1394.68C2067.2 1395.58 2065.47 1396.16 2063.67 1396.38C2066.43 1396.82 2068.43 1397.96 2069.73 1399.83C2070.91 1401.4 2071.58 1403.3 2071.65 1405.26V1407.82C2071.65 1408.63 2071.67 1409.5 2071.73 1410.42C2071.72 1411.05 2071.82 1411.67 2072.02 1412.26L2072.23 1412.69H2066.46L2066.38 1412.34L2066.28 1411.95L2066.15 1410.83V1408.04C2066.15 1403.99 2065.06 1401.29 2062.83 1400C2061.53 1399.23 2059.26 1398.87 2055.99 1398.87H2051.1V1412.69H2044.92V1377.65L2057.23 1377.64ZM1186.88 871.27L1144.35 1031.14C1130.57 1023.72 1115.89 1018.96 1100.03 1019.24C1053.02 1020.44 1015.26 1054.91 989.801 1091.74L1004.77 1033.51C994.898 1025.77 989.204 1022.21 976.325 1022.21C961.182 1022.4 946.299 1026.17 932.889 1033.21L936.184 1021.91H823.554L769.366 1226.03C760.975 1234.06 752.597 1239.99 742.104 1244.16L800.209 1022.22H685.789L680.99 1036.19C666.569 1025.83 649.321 1020.12 631.563 1019.85C553.096 1018.96 499.479 1109.59 482.709 1173.45C474.927 1205.54 473.124 1247.43 484.524 1281.31C495.899 1315.46 520.165 1341.63 563.886 1342.2C587.245 1342.82 609.099 1334.2 628.281 1321.13C643.248 1336.27 662.418 1343.69 683.39 1343.08C704.66 1342.81 724.725 1336.85 742.986 1326.15L740.6 1335.07H852.01L898.442 1161.84C905.03 1141.04 919.997 1119.06 944.562 1119.06C952.655 1118.76 962.24 1123.22 969.425 1126.49C959.962 1145.65 952.917 1165.9 948.453 1186.8C940.658 1223.65 940.658 1260.49 951.747 1288.4C963.122 1316.34 986.182 1335.65 1024.53 1337.14C1038.88 1336.8 1053.02 1333.67 1066.17 1327.92L1064.96 1335.35H1181.47L1305.77 871.244H1186.88V871.27ZM649.266 1173.76C644.468 1194.27 625.882 1248.34 599.839 1248.34C572.875 1248.34 580.955 1189.18 585.455 1172.87C592.952 1146.13 612.419 1104.52 640.265 1104.52C660.044 1104.52 652.249 1161 649.266 1173.76ZM1107.5 1174.35C1101.22 1196.33 1087.14 1248.34 1054.49 1248.34C1031.12 1248.34 1050.3 1176.72 1051.5 1172.87C1057.79 1155.04 1080.54 1104.52 1106.9 1104.52C1129.08 1104.52 1108.99 1169.29 1107.5 1174.35ZM2004.57 1250.71C1972.8 1250.71 1985.37 1193.96 1991.68 1174.65C1999.46 1150 2022.22 1103.95 2051.89 1103.95C2082.44 1103.64 2094.1 1140.47 2104.91 1162.77L2130.65 1062.34C2109.36 1034.12 2079.14 1020.45 2043.48 1020.73C1972.8 1021.63 1915.61 1079.28 1892.83 1142.58C1891.34 1074.53 1854.2 1021.34 1781.73 1019.25C1694.54 1021.93 1637.34 1100.07 1621.21 1177.33C1604.11 1257.85 1639.17 1336.86 1726.31 1337.48C1799.09 1338.06 1857.5 1283.09 1880.28 1218.63C1884.18 1291.43 1919.8 1335.99 1986.9 1337.18C2015.35 1337.78 2045.29 1327.08 2067.76 1309.26L2094.1 1198.42C2071.04 1217.42 2036.58 1251 2004.57 1250.71ZM1788.31 1174.05C1779.62 1201.67 1756.85 1248.92 1726.3 1248.92C1702.04 1248.92 1717.92 1190.69 1724.5 1174.63C1732.58 1153.56 1753.25 1104.52 1780.84 1104.22C1807.79 1104.22 1793.1 1158.9 1788.31 1174.05ZM565.106 840.973L431.517 1334.48H302.714L362.933 1112.25H317.396L257.19 1334.48H129.905L228.735 963.096C220.538 964.569 212.208 965.169 203.885 964.886C193.107 964.574 184.728 961.306 174.534 958.336L194.897 887.339C211.667 887.651 227.853 886.73 242.82 878.403C257.787 869.804 271.561 854.941 281.444 840.986H390.779L343.154 1016.6H388.678L435.992 840.986L565.106 840.973ZM2363.08 1325.87C2353.17 1337.48 2344.48 1352.32 2327.14 1352.62C2314.55 1352.62 2313.64 1325.3 2313.36 1320.52C2313.07 1288.75 2306.75 1249.51 2289.98 1222.78C2342.39 1199.33 2383.74 1153.25 2385.23 1092.65C2384.35 1043.9 2351.39 1021.33 2304.96 1020.45C2286.41 1020.73 2268.44 1026.09 2251.97 1034.43L2295.39 872.8H2192.37L2069.59 1335.41H2172.6L2197.74 1239.43C2217.8 1248.95 2218.44 1282.81 2217.8 1301.54C2217.53 1320.54 2214.54 1338.97 2212.73 1358C2207.95 1409.98 2243.86 1450.71 2297.8 1450.99C2334.32 1451.28 2363.69 1434.37 2389.73 1412.07L2363.08 1325.87ZM2252.25 1157.11C2241.46 1162.19 2229.18 1166.03 2216.91 1165.74C2221.67 1147.62 2232.16 1133.05 2247.13 1121.78C2256.18 1114.79 2266.58 1109.73 2277.67 1106.92C2297.15 1102.14 2296.85 1115.53 2289.37 1127.72C2281.01 1141.35 2266.92 1150.56 2252.25 1157.11ZM1621.78 1337.77C1605.92 1339.23 1602.3 1326.48 1604.4 1309.84C1608.28 1278.04 1611.6 1246.55 1612.78 1214.46C1613.07 1201.04 1612.17 1187.62 1610.09 1174.36C1607.11 1156.22 1602.28 1138.98 1592.71 1122.94C1656.2 1104.83 1702.02 1045.71 1708.91 981.228C1713.42 903.967 1648.13 837.717 1569.35 838.301L1466 838.897C1452.22 850.194 1437.85 860.881 1421.99 869.493C1404 879.298 1385.72 880.206 1365.68 877.82L1345 954.471C1357.87 959.231 1368.97 963.394 1382.72 964.289C1390.43 964.662 1398.14 963.651 1405.49 961.306L1304.85 1335.09H1433.66L1487.57 1135.14C1507.05 1153.84 1504.64 1188.91 1502.24 1212.96C1498.03 1257.24 1477.06 1305.65 1476.48 1349.63C1475.89 1411.75 1515.11 1449.49 1576.2 1449.77C1616.36 1450.05 1654.68 1436.7 1681.02 1406.1L1656.76 1317.84C1646.33 1325.87 1635.54 1336.57 1621.78 1337.77ZM1514.86 1050.45H1510.34L1544.79 922.98H1557.05C1594.2 922.98 1606.51 948.245 1599.3 977.648C1589.12 1010.92 1551.99 1050.75 1514.86 1050.45Z" fill="black"/>
<path fill-rule="evenodd" clip-rule="evenodd" d="M1177.01 854.37L1134.48 1014.21C1120.7 1006.79 1106.02 1002.04 1090.15 1002.33C1043.13 1003.51 1005.4 1037.98 979.931 1074.83L994.898 1016.58C985.015 1008.87 979.321 1005.29 966.455 1005.29C951.311 1005.48 936.428 1009.26 923.019 1016.3L926.314 1005H813.684L759.471 1209.12C751.092 1217.13 742.714 1223.07 732.221 1227.24L790.313 1005.29H675.906L671.108 1019.25C656.689 1008.89 639.445 1003.2 621.693 1002.93C543.213 1002.03 489.609 1092.65 472.813 1156.53C465.031 1188.61 463.254 1230.51 474.629 1264.4C486.003 1298.53 510.282 1324.68 554.004 1325.29C577.362 1325.86 599.216 1317.27 618.385 1304.19C633.366 1319.34 652.522 1326.77 673.507 1326.16C694.764 1325.86 714.842 1319.92 733.103 1309.25L730.717 1318.16H842.127L888.559 1144.92C895.147 1124.14 910.114 1102.16 934.666 1102.16C942.772 1101.87 952.344 1106.3 959.529 1109.59C950.067 1128.74 943.026 1149 938.57 1169.9C930.762 1206.75 930.762 1243.58 941.851 1271.52C953.226 1299.44 976.286 1318.75 1014.64 1320.23C1028.98 1319.9 1043.12 1316.78 1056.27 1311.05L1055.08 1318.44H1171.57L1295.89 854.357L1177.01 854.37ZM639.396 1156.83C634.585 1177.34 616.012 1231.41 589.956 1231.41C563.005 1231.41 571.085 1172.27 575.585 1155.96C583.082 1129.21 602.549 1087.62 630.408 1087.62C650.161 1087.62 642.38 1144.06 639.396 1156.83ZM1097.63 1157.45C1091.35 1179.42 1077.27 1231.43 1044.64 1231.43C1021.27 1231.43 1040.45 1159.82 1041.64 1155.97C1047.93 1138.14 1070.69 1087.63 1097.05 1087.63C1119.21 1087.62 1099.14 1152.39 1097.63 1157.45ZM1994.68 1233.79C1962.92 1233.79 1975.49 1177.05 1981.79 1157.72C1989.6 1133.06 2012.36 1087.01 2042.01 1087.01C2072.58 1086.71 2084.24 1123.54 2095.03 1145.81L2120.76 1045.4C2099.51 1017.18 2069.26 1003.52 2033.62 1003.81C1962.92 1004.7 1905.73 1062.34 1882.98 1125.63C1881.46 1057.61 1844.33 1004.4 1771.85 1002.34C1684.68 1005.01 1627.49 1083.16 1611.32 1160.4C1594.23 1240.92 1629.29 1319.95 1716.43 1320.54C1789.23 1321.15 1847.65 1266.19 1870.4 1201.71C1874.3 1274.5 1909.94 1319.06 1976.99 1320.24C2005.46 1320.85 2035.44 1310.15 2057.87 1292.32L2084.24 1181.52C2061.18 1200.51 2026.76 1234.09 1994.68 1233.79ZM1778.45 1157.14C1769.76 1184.76 1746.99 1232 1716.42 1232C1692.18 1232 1708.05 1173.76 1714.64 1157.71C1722.72 1136.63 1743.4 1087.61 1770.96 1087.31C1797.91 1087.32 1783.24 1141.97 1778.45 1157.14ZM555.236 824.06L421.66 1317.56H292.857L353.063 1095.34H307.513L247.32 1317.56H120.035L218.865 946.17C210.67 947.656 202.338 948.256 194.015 947.96C183.224 947.662 174.845 944.393 164.651 941.436L185.014 870.414C201.784 870.725 217.97 869.83 232.924 861.504C247.904 852.892 261.678 838.028 271.561 824.06H380.883L333.258 999.658H378.795L426.109 824.06H555.236ZM2353.18 1308.96C2343.3 1320.54 2334.64 1335.41 2317.26 1335.7C2304.66 1335.7 2303.78 1308.38 2303.48 1303.63C2303.18 1271.83 2296.89 1232.59 2280.12 1205.85C2332.53 1182.38 2373.88 1136.35 2375.37 1075.73C2374.47 1027.01 2341.54 1004.42 2295.1 1003.54C2276.53 1003.82 2258.55 1009.19 2242.08 1017.5L2285.53 855.862H2182.49L2059.7 1318.47H2162.72L2187.87 1222.52C2207.96 1232.02 2208.54 1265.9 2207.96 1284.62C2207.64 1303.64 2204.64 1322.07 2202.82 1341.06C2198.06 1393.07 2234 1433.78 2287.92 1434.05C2324.47 1434.37 2353.83 1417.43 2379.87 1395.14L2353.18 1308.96ZM2242.38 1140.2C2231.59 1145.24 2219.33 1149.12 2207.04 1148.82C2211.8 1130.68 2222.32 1116.13 2237.28 1104.84C2246.34 1097.84 2256.73 1092.79 2267.83 1089.99C2287.31 1085.23 2286.98 1098.6 2279.5 1110.78C2271.12 1124.47 2257.06 1133.66 2242.38 1140.2ZM1611.9 1320.85C1596.03 1322.33 1592.41 1309.56 1594.52 1292.92C1598.42 1261.13 1601.71 1229.64 1602.89 1197.54C1603.19 1184.12 1602.3 1170.71 1600.24 1157.45C1597.23 1139.3 1592.4 1122.08 1582.86 1106.05C1646.34 1087.92 1692.17 1028.8 1699.05 964.302C1703.54 887.054 1638.25 820.818 1559.47 821.388L1456.12 821.985C1442.35 833.281 1427.97 843.981 1412.11 852.58C1394.12 862.386 1375.86 863.293 1355.79 860.907L1335.12 937.571C1348.01 942.305 1359.09 946.482 1372.86 947.363C1380.64 947.662 1388.44 946.78 1395.64 944.393L1294.99 1318.18H1423.78L1477.68 1118.21C1497.16 1136.93 1494.75 1172 1492.38 1196.06C1488.18 1240.32 1467.2 1288.77 1466.62 1332.72C1466.04 1394.82 1505.26 1432.56 1566.35 1432.86C1606.5 1433.15 1644.83 1419.77 1671.17 1389.2L1646.93 1300.95C1636.47 1308.96 1625.68 1319.67 1611.9 1320.85ZM1504.97 1033.55H1500.49L1534.93 906.068H1547.19C1584.32 906.068 1596.63 931.307 1589.44 960.735C1579.28 994.016 1542.11 1033.82 1504.97 1033.55Z" fill="#A88B23"/>
<path fill-rule="evenodd" clip-rule="evenodd" d="M1167.27 840.091L1124.74 999.943C1110.96 992.524 1096.3 987.751 1080.42 988.05C1033.39 989.243 995.65 1023.72 970.19 1060.56L985.158 1002.32C975.288 994.586 969.581 991.007 956.715 991.007C941.571 991.206 926.689 994.979 913.279 1002.02L916.573 990.709H803.944L749.73 1194.84C741.352 1202.85 732.96 1208.81 722.481 1212.95L780.572 990.994H666.166L661.367 1004.98C646.95 994.603 629.698 988.904 611.94 988.646C533.485 987.751 479.868 1078.36 463.099 1142.25C455.291 1174.35 453.514 1216.23 464.888 1250.1C476.263 1284.27 500.529 1310.41 544.25 1311.02C567.622 1311.62 589.476 1302.99 608.658 1289.92C623.638 1305.07 642.795 1312.49 663.767 1311.87C685.037 1311.61 705.101 1305.64 723.363 1294.97L720.989 1303.86H832.4L878.818 1130.65C885.407 1109.86 900.387 1087.86 924.952 1087.86C933.045 1087.59 942.617 1092.02 949.815 1095.3C940.35 1114.46 933.31 1134.72 928.856 1155.62C921.074 1192.45 921.074 1229.3 932.137 1257.22C943.525 1285.15 966.585 1304.47 1004.94 1305.96C1019.28 1305.62 1033.41 1302.49 1046.56 1296.74L1045.35 1304.16H1161.87L1286.17 840.065H1167.27V840.091ZM629.63 1142.57C624.857 1163.05 606.272 1217.15 580.228 1217.15C553.277 1217.15 561.344 1158.01 565.845 1141.66C573.329 1114.92 592.809 1073.31 620.668 1073.31C640.434 1073.33 632.639 1129.78 629.63 1142.57ZM1087.89 1143.16C1081.63 1165.14 1067.54 1217.15 1034.9 1217.15C1011.53 1217.15 1030.71 1145.53 1031.91 1141.66C1038.2 1123.83 1060.95 1073.31 1087.31 1073.31C1109.46 1073.33 1089.4 1138.1 1087.89 1143.16ZM1984.93 1219.5C1953.19 1219.5 1965.78 1162.75 1972.07 1143.44C1979.87 1118.78 2002.6 1072.76 2032.26 1072.76C2062.83 1072.46 2074.51 1109.28 2085.28 1131.57L2111.04 1031.15C2089.78 1002.94 2059.53 989.256 2023.87 989.567C1953.19 990.436 1896 1048.1 1873.22 1111.37C1871.73 1043.34 1834.59 990.151 1762.12 988.063C1674.93 990.734 1617.71 1068.88 1601.57 1146.14C1584.5 1226.65 1619.56 1305.67 1706.72 1306.28C1779.49 1306.89 1837.88 1251.91 1860.66 1187.43C1864.53 1260.22 1900.17 1304.82 1967.28 1306C1995.72 1306.57 2025.7 1295.9 2048.13 1278.07L2074.5 1167.24C2051.43 1186.21 2017.01 1219.81 1984.93 1219.5ZM1768.7 1142.86C1760.01 1170.48 1737.24 1217.73 1706.72 1217.73C1682.45 1217.73 1698.34 1159.5 1704.89 1143.44C1712.97 1122.36 1733.64 1073.33 1761.2 1073.03C1788.15 1073.03 1773.51 1127.71 1768.7 1142.86ZM545.482 809.78L411.894 1303.29H283.104L343.323 1081.07H297.773L237.58 1303.29H110.295L209.125 931.904C200.928 933.382 192.598 933.982 184.274 933.693C173.497 933.395 165.105 930.14 154.924 927.144L175.286 856.121C192.056 856.433 208.23 855.538 223.197 847.224C238.19 838.586 251.964 823.736 261.847 809.767H371.169L323.557 985.378H369.081L416.407 809.767L545.482 809.78ZM2343.46 1294.69C2333.57 1306.26 2324.88 1321.13 2307.53 1321.41C2294.91 1321.41 2294.03 1294.08 2293.76 1289.32C2293.43 1257.54 2287.14 1218.31 2270.37 1191.6C2322.78 1168.12 2364.13 1122.07 2365.65 1061.46C2364.74 1012.72 2331.78 990.138 2285.38 989.243C2266.8 989.554 2248.8 994.898 2232.33 1003.2L2275.78 841.595H2172.73L2049.95 1304.19H2152.98L2178.12 1208.22C2198.18 1217.73 2198.79 1251.6 2198.18 1270.32C2197.91 1289.34 2194.91 1307.77 2193.11 1326.78C2188.32 1378.78 2224.24 1419.48 2278.15 1419.77C2314.7 1420.06 2344.06 1403.13 2370.11 1380.86L2343.46 1294.69ZM2232.63 1125.92C2221.86 1130.98 2209.58 1134.84 2197.31 1134.54C2202.07 1116.42 2212.56 1101.85 2227.56 1090.55C2236.52 1083.74 2247.01 1078.37 2258.1 1075.69C2277.56 1070.94 2277.26 1084.31 2269.77 1096.49C2261.4 1110.16 2247.31 1119.38 2232.63 1125.92ZM1602.17 1306.55C1586.28 1308.03 1582.69 1295.26 1584.79 1278.62C1588.69 1246.85 1591.99 1215.37 1593.17 1183.27C1593.46 1169.85 1592.56 1156.42 1590.48 1143.16C1587.47 1125.02 1582.67 1107.77 1573.1 1091.76C1636.59 1073.62 1682.44 1014.5 1689.3 950.035C1693.79 872.774 1628.5 806.525 1549.72 807.109L1446.41 807.705C1432.64 818.989 1418.24 829.676 1402.38 838.301C1384.37 848.106 1366.13 848.988 1346.04 846.601L1325.37 923.279C1338.26 928.052 1349.36 932.189 1363.11 933.097C1370.89 933.369 1378.69 932.487 1385.91 930.127L1285.24 1303.88H1414.05L1467.96 1103.95C1487.41 1122.65 1485.03 1157.71 1482.65 1181.77C1478.45 1226.04 1457.48 1274.46 1456.87 1318.43C1456.26 1380.54 1495.5 1418.27 1556.59 1418.58C1596.72 1418.85 1635.07 1405.49 1661.41 1374.91L1637.17 1286.64C1626.72 1294.69 1615.93 1305.35 1602.17 1306.55ZM1495.25 1019.24H1490.76L1525.18 891.788H1537.46C1574.59 891.788 1586.89 917.053 1579.69 946.456C1569.5 979.749 1532.38 1019.54 1495.25 1019.24Z" fill="white"/>
<path fill-rule="evenodd" clip-rule="evenodd" d="M425.019 820.973L377.394 996.584H307.617L354.931 820.973H267.164C267.164 820.973 256.685 836.122 233.923 853.346C214.468 867.924 183.328 867.612 183.328 867.612L168.944 919.012C168.944 919.012 177.336 921.696 185.429 921.696C218.074 921.696 226.167 911.58 226.167 911.58L124.899 1291.02H227.918L288.123 1068.77H357.914L297.708 1291.02H402.244L529.231 820.973H425.019ZM705.659 1227.15L764.658 1002.23H674.194L666.114 1026.28C663.416 1019.75 640.369 1000.14 613.405 1000.14C550.8 1000.14 495.095 1067.29 475.018 1141.27C467.236 1169.19 464.849 1208.72 473.837 1241.09C483.111 1273.48 504.083 1299.04 543.628 1299.04C581.058 1299.04 609.812 1273.79 609.812 1273.79C609.812 1273.79 625.687 1299.93 663.131 1299.93C700.264 1299.93 727.526 1277.05 727.526 1277.05L742.778 1214.07C733.816 1221.21 718.227 1228.33 705.659 1227.15ZM640.966 1142.45C636.465 1164.75 612.51 1228.64 579.554 1228.64C542.422 1228.64 546.325 1167.72 553.199 1140.98C560.099 1113.35 584.054 1061.35 619.994 1061.35C652.042 1061.35 645.466 1120.46 640.966 1142.45ZM735.606 1291.62L822.478 1291.89L866.795 1127.01C880.271 1081.24 916.508 1075.31 924.9 1075.58C937.182 1076.19 951.566 1083 951.566 1083L971.033 1006.38C971.033 1006.38 966.247 1002.51 956.066 1002.51C924.913 1002.51 893.163 1026.57 893.163 1026.57L900.348 1001.9H812.283L735.606 1291.62ZM1131.25 1018.55L1175.58 851.569H1270.25L1152.23 1291.89H1059.07L1062.38 1274.36C1062.38 1274.36 1035.12 1293.68 1004.26 1293.68C964.432 1293.68 945.262 1268.72 938.375 1237.21C931.177 1205.72 935.976 1167.4 943.758 1140.95C965.327 1068.44 1021.93 999.243 1080.03 999.243C1110.6 999.256 1131.25 1018.55 1131.25 1018.55ZM1099.51 1143.04C1106.7 1117.81 1121.37 1061.35 1086.63 1061.35C1061.19 1061.35 1032.42 1098.49 1018.94 1141.57C1012.96 1159.69 999.165 1228.63 1034.22 1228.63C1072.86 1228.63 1090.84 1173.05 1099.51 1143.04ZM1299.89 1291.62L1402.01 913.084C1402.01 913.084 1378.06 920.801 1365.51 920.801C1352.92 920.801 1338.83 915.756 1338.83 915.756L1354.11 858.988C1354.11 858.988 1382.86 861.958 1405.33 849.169C1428.98 836.122 1449.95 818.885 1449.95 818.885L1549.08 818.288C1617.98 817.99 1683.27 877.716 1676.98 948.738C1671.28 1013.2 1615.27 1077.68 1549.67 1083.62C1575.76 1102.62 1581.74 1156.11 1580.55 1182.57C1579.06 1231.87 1575.18 1254.16 1572.17 1279.12C1569.43 1299.92 1578.76 1318.04 1600 1318.04C1614.67 1318.04 1629.98 1306.17 1629.98 1306.17L1647.94 1371.53C1647.94 1371.53 1617.99 1406.29 1555.98 1406.29C1494.27 1406.29 1465.54 1364.39 1468.2 1313.31C1470.62 1266.63 1493.66 1233.96 1495.49 1154.93C1495.79 1132.04 1488.29 1105.62 1473.91 1093.71L1490.12 1030.72C1530.83 1033.98 1582.66 986.143 1591.35 945.172C1599.72 905.653 1577.85 881.283 1537.14 879.791H1515.56L1404.43 1291.59H1299.89V1291.62ZM1761.44 999.256C1684.76 999.256 1630.86 1075.01 1613.8 1141.57C1597.01 1208.09 1621.27 1294.28 1706.03 1294.28C1790.79 1294.28 1848.88 1217.91 1859.06 1141.85C1868.05 1075.6 1842.01 999.256 1761.44 999.256ZM1780 1143.04C1771.01 1173.66 1743.75 1229.22 1706.03 1229.22C1665.29 1229.22 1686.58 1156.12 1691.65 1142.75C1707.22 1100.85 1734.46 1061.04 1760.54 1061.04C1792.28 1061.04 1792.28 1101.44 1780 1143.04ZM2054.06 1198.03L2036.99 1270.8C2036.99 1270.8 2007.97 1293.98 1966.88 1293.98C1882.17 1293.98 1861.47 1207.52 1875.86 1141.27C1893.24 1060.76 1959.71 1001.03 2023.21 1001.03C2074.73 1001.03 2097.78 1033.42 2097.78 1033.42L2081.31 1097C2081.31 1097 2064.24 1060.46 2031.58 1060.46C2001.04 1060.46 1971.7 1100.56 1958.81 1143.65C1951 1170.4 1941.13 1231 1983.96 1231C2014.8 1230.99 2054.06 1198.03 2054.06 1198.03ZM2337.7 1318.05C2337.7 1318.05 2325.71 1332.6 2307.15 1332.6C2293.7 1332.6 2281.42 1319.56 2281.42 1289.23C2281.42 1265.16 2274.78 1205.15 2249.35 1186.42C2301.46 1170.07 2353.29 1122.25 2353.29 1061.04C2353.29 1018.26 2322.74 1000.72 2284.69 1000.72C2252.67 1000.72 2221.49 1021.24 2212.8 1027.75L2259.54 853.06H2181.06L2064.57 1292.19H2143.34L2185.57 1129.96C2192.46 1103.52 2211.31 1085.37 2227.19 1075.58C2240.06 1067.57 2252.34 1064.01 2258.93 1062.83C2282.29 1059.25 2290.69 1076.5 2282.59 1095.53C2277.49 1107.99 2266.43 1118.99 2253.25 1127.29C2234.99 1139.2 2212.49 1146.33 2196.66 1145.71L2182.86 1197.42C2206.83 1207.52 2210.13 1246.15 2209.52 1267.26C2208.93 1298.44 2206.53 1304.69 2204.12 1327.26C2199.33 1375.09 2234.69 1407.78 2277.5 1407.78C2320.06 1407.78 2356.01 1376.58 2356.01 1376.58L2337.7 1318.05Z" fill="#A88B23"/>
</g>
<defs>
<clipPath id="clip0_32_7">
<rect width="2500" height="2500" fill="white"/>
</clipPath>
</defs>
</svg>
