<?xml version="1.0" encoding="UTF-8"?> <svg xmlns="http://www.w3.org/2000/svg" id="seacrets-logo" data-name="Seacrets Logo" viewBox="0 0 396.69 120.55"><defs><style>.cls-1{fill:#fff;}</style></defs><path class="cls-1" d="M429.33,60.66a13,13,0,0,1,2.22-.19,3.68,3.68,0,0,1,2.58.73,2.28,2.28,0,0,1,.7,1.71,2.35,2.35,0,0,1-1.67,2.27v0a2.22,2.22,0,0,1,1.3,1.8,14.27,14.27,0,0,0,.69,2.45H434a10.24,10.24,0,0,1-.58-2.13c-.27-1.23-.76-1.7-1.81-1.74h-1.08v3.87h-1.16Zm1.16,4.07h1.18c1.23,0,2-.68,2-1.7s-.84-1.66-2.05-1.66a4.49,4.49,0,0,0-1.14.1Z" transform="translate(-43.25 -39.9)"></path><path class="cls-1" d="M432.38,72.24a7.56,7.56,0,1,1,7.55-7.55A7.56,7.56,0,0,1,432.38,72.24Zm0-14a6.45,6.45,0,1,0,6.45,6.45A6.45,6.45,0,0,0,432.38,58.24Z" transform="translate(-43.25 -39.9)"></path><path class="cls-1" d="M435.59,131.54c-3.14-6.55-5.35-10.81-5.35-10.81s4.89-3.33,5.32-7.3-2.86-6-6.78-3.93-5.56,7.94-5.41,11.15c0,0-15,14.45-24.31,21.48s-10.87,5.86-12.14,5.21-.63-1.91.14-4.34c.37-1.16,5.5-14.62,10.86-28.47,3,.12,5.3.22,5.64.26,1.16.13,1.43-.85,2-1.29s.59-.77,1-1.73-1.05-1.12-1.05-1.12l-6-.22c5.3-13.67,10.39-26.59,10.85-27.25,1-1.4-.11-2-1.86-1.38s-9,2.87-10.57,3.2-1.31,1.2-1.71,1.83c0,0-4.29,11.52-8.65,23.15l-9.94-.37a1.71,1.71,0,0,0-1.43.85,8.94,8.94,0,0,0-.42,2.3c-.11,1,.88,1.1,2.06,1.07.44,0,3.92.09,8.2.25-2.43,6.47-4.73,12.57-6.14,16.23-.48,1.24-.9,2.43-1.29,3.57-5.84,4.56-16.13,12.31-21.12,14.27-5.42,2.13-10.65,1.76-13.17-1,3.56-1.55,7.06-3.19,10.29-4.82,13.13-6.61,16.78-12.41,15.91-18.21s-10.37-12.53-26.49-1.55c-12.12,8.25-14.38,19.09-11.84,25.85a76.15,76.15,0,0,1-8.54,2.6c-10.32,2.39-10.68-2-6.66-9.61s8.85-13.46,9.8-17.54-1.5-4.69-4.78-2.37-8.06,6.33-14,5.18c0,0,1.75-5.34-2.15-6.44s-6.77,3.62-4.39,7.9c0,0-8,13-18.29,20.14s-19.56,2.55-18.86-3.91,4.39-15.62,8.46-19,9.78-3.62,12.86-1.11,4.4,4.17,5.79,3.82a3.47,3.47,0,0,0,2.64-2.73c.51-1.62,1.43-3.87-1.92-5.41s-14.22-3.39-22.66,1.72-14,11.22-16.71,22.48c0,0-6.21,4.69-11.05,6s-4.77-2.37-3.14-6.55,10-23.89,10-23.89a35.41,35.41,0,0,0-11.59.24l-1.57,2s-4-4.8-14-2.53-14.86,8.6-21.95,15.2S184.39,147.33,176.72,150c-5.3,1.85-9.75.35-10.88-3.39a104.33,104.33,0,0,0,12.19-4c12-5.23,16.16-9.8,16.19-14.66s-3.94-8.47-9.95-8.63-16.56,2.72-24,11.29c-4.87,5.59-6.87,11.69-6.95,16.28-4.22,1-8,1.84-10.5,2.27,0,0,10.14-6.94,9.77-18.89S147,111.9,134,102.09,108.09,83,105.62,76.52s1.09-14.63,6.66-19.56,16-9.65,32.3-11.72,21.92.38,23.42,5.07,1.22,13.38-24.68,23.29c0,0,3,3.35,14,5.22,0,0,14.62-9.47,18-16.3s3.91-12.82-.49-17-18.86-6.92-32-5S114.44,46.47,100.16,59,89,84.1,103.18,95.7s28,21.51,33,27.42,4.56,16.6-1.54,21.8-14,8.69-26.36,9.52-45.61-3-58-9.19c0,0-3.86,3.1-5.68,4.41a2.92,2.92,0,0,0-1.34,3s13.11,9,43.6,7.62c19.56-.88,46.58-5.76,66.61-10.53a7.31,7.31,0,0,0,1.13,2.84c2.62,3.64,12.73,6.26,22.44,1.78a84.09,84.09,0,0,0,20.33-12.7s-2.38,6.45.24,10.09a14.06,14.06,0,0,0,14.55,4.95c6.56-1.8,12-6.58,15.27-10.91,0,0-1.86,9.35,5,10.94s20.19-8.35,20.19-8.35-.31,9,13.64,8.7,31-12,39.19-25.73c0,0,5.18.23,7.62-.67,0,0-3.77,8.47-5.86,15.28s1.71,10.42,9.13,10.05c3.78-.18,10.25-2.05,17.42-4.7a9,9,0,0,0,2.31,2.17c6.78,4.37,22.66,2.9,41.1-15-1.7,6.44-1.81,10.88-1.32,13,.69,2.93,6,5.35,12.32,2.36s29.19-21.63,35.73-29.29A22.67,22.67,0,0,1,427.17,138c-.79,7.29-3.77,11.49-7.47,11.59s-8-4.9-12.54-4.9-6,6.05-.54,8,17.57,3.43,23.76-2.6S438.73,138.09,435.59,131.54Zm-269,8.81c3.39-8,8.35-15,12.45-17.25s7.87-1.48,7.77,2.53-4.6,9.89-11.4,13.84a53.8,53.8,0,0,1-9.69,3.93A12.16,12.16,0,0,1,166.54,140.35Zm65-8.32a85.69,85.69,0,0,1-9.25,14.08c-3.11,3.85-7.74,6.36-11.59,4.77s-1.84-10.77,1.85-16.9,7.79-9.84,12.69-11.86c3.87-1.59,7.86.19,9,1.83A32,32,0,0,1,231.5,132ZM342.85,144c-.85-5.5,5.58-17.1,9.48-20.68s8.15-4,10.27-1.9.37,10.44-6.71,15.36A94.71,94.71,0,0,1,342.85,144Z" transform="translate(-43.25 -39.9)"></path></svg> 