<svg width="397" height="121" viewBox="0 0 397 121" fill="none" xmlns="http://www.w3.org/2000/svg">
<g clip-path="url(#clip0_31_3)">
<path d="M386.08 20.76C386.813 20.6333 387.556 20.5697 388.3 20.57C389.221 20.4802 390.142 20.7409 390.88 21.3C391.11 21.5204 391.29 21.7864 391.411 22.0809C391.532 22.3754 391.589 22.6919 391.58 23.01C391.584 23.5181 391.424 24.0139 391.123 24.4231C390.822 24.8324 390.396 25.133 389.91 25.28C390.266 25.4395 390.573 25.6898 390.801 26.0058C391.029 26.3218 391.17 26.6923 391.21 27.08C391.367 27.9156 391.597 28.7355 391.9 29.53H390.75C390.48 28.843 390.286 28.1288 390.17 27.4C389.9 26.17 389.41 25.7 388.36 25.66H387.28V29.53H386.12L386.08 20.76ZM387.24 24.83H388.42C389.65 24.83 390.42 24.15 390.42 23.13C390.42 22.11 389.58 21.47 388.37 21.47C387.987 21.4546 387.604 21.4882 387.23 21.57L387.24 24.83Z" fill="#604DB8"/>
<path d="M389.13 32.34C387.634 32.342 386.171 31.9 384.926 31.0701C383.681 30.2401 382.711 29.0595 382.137 27.6777C381.564 26.2959 381.413 24.775 381.705 23.3076C381.996 21.8401 382.716 20.4922 383.774 19.4343C384.832 18.3764 386.18 17.6562 387.648 17.3648C389.115 17.0734 390.636 17.224 392.018 17.7974C393.4 18.3708 394.58 19.3414 395.41 20.5861C396.24 21.8309 396.682 23.2939 396.68 24.79C396.677 26.7916 395.881 28.7104 394.466 30.1257C393.05 31.5411 391.132 32.3374 389.13 32.34ZM389.13 18.34C387.854 18.34 386.607 18.7183 385.547 19.427C384.486 20.1358 383.659 21.1431 383.171 22.3217C382.683 23.5003 382.555 24.7972 382.804 26.0483C383.053 27.2995 383.667 28.4488 384.569 29.3508C385.471 30.2529 386.62 30.8672 387.872 31.1161C389.123 31.3649 390.42 31.2372 391.598 30.749C392.777 30.2608 393.784 29.4341 394.493 28.3734C395.202 27.3127 395.58 26.0657 395.58 24.79C395.58 23.0794 394.9 21.4388 393.691 20.2292C392.481 19.0196 390.841 18.34 389.13 18.34Z" fill="#604DB8"/>
<path d="M392.34 91.64C389.2 85.09 386.99 80.83 386.99 80.83C386.99 80.83 391.88 77.5 392.31 73.53C392.74 69.56 389.45 67.53 385.53 69.6C381.61 71.67 379.97 77.54 380.12 80.75C380.12 80.75 365.12 95.2 355.81 102.23C346.5 109.26 344.94 108.09 343.67 107.44C342.4 106.79 343.04 105.53 343.81 103.1C344.18 101.94 349.31 88.48 354.67 74.63C357.67 74.75 359.97 74.85 360.31 74.89C361.47 75.02 361.74 74.04 362.31 73.6C362.88 73.16 362.9 72.83 363.31 71.87C363.72 70.91 362.26 70.75 362.26 70.75L356.26 70.53C361.56 56.86 366.65 43.94 367.11 43.28C368.11 41.88 367 41.28 365.25 41.9C363.5 42.52 356.25 44.77 354.68 45.1C353.11 45.43 353.37 46.3 352.97 46.93C352.97 46.93 348.68 58.45 344.32 70.08L334.38 69.71C334.089 69.7182 333.805 69.8006 333.555 69.9494C333.304 70.0981 333.096 70.3083 332.95 70.56C332.71 71.305 332.569 72.0783 332.53 72.86C332.42 73.86 333.41 73.96 334.59 73.93C335.03 73.93 338.51 74.02 342.79 74.18C340.36 80.65 338.06 86.75 336.65 90.41C336.17 91.65 335.75 92.84 335.36 93.98C329.52 98.54 319.23 106.29 314.24 108.25C308.82 110.38 303.59 110.01 301.07 107.25C304.63 105.7 308.13 104.06 311.36 102.43C324.49 95.82 328.14 90.02 327.27 84.22C326.4 78.42 316.9 71.69 300.78 82.67C288.66 90.92 286.4 101.76 288.94 108.52C286.147 109.553 283.295 110.421 280.4 111.12C270.08 113.51 269.72 109.12 273.74 101.51C277.76 93.9 282.59 88.05 283.54 83.97C284.49 79.89 282.04 79.28 278.76 81.6C275.48 83.92 270.7 87.93 264.76 86.78C264.76 86.78 266.51 81.44 262.61 80.34C258.71 79.24 255.84 83.96 258.22 88.24C258.22 88.24 250.22 101.24 239.93 108.38C229.64 115.52 220.37 110.93 221.07 104.47C221.77 98.01 225.46 88.85 229.53 85.47C233.6 82.09 239.31 81.85 242.39 84.36C245.47 86.87 246.79 88.53 248.18 88.18C248.838 88.0308 249.438 87.6931 249.907 87.2082C250.375 86.7234 250.693 86.1124 250.82 85.45C251.33 83.83 252.25 81.58 248.9 80.04C245.55 78.5 234.68 76.65 226.24 81.76C217.8 86.87 212.24 92.98 209.53 104.24C209.53 104.24 203.32 108.93 198.48 110.24C193.64 111.55 193.71 107.87 195.34 103.69C196.97 99.51 205.34 79.8 205.34 79.8C201.49 79.2428 197.574 79.3239 193.75 80.04L192.18 82.04C192.18 82.04 188.18 77.24 178.18 79.51C168.18 81.78 163.32 88.11 156.23 94.71C149.14 101.31 141.14 107.43 133.47 110.1C128.17 111.95 123.72 110.45 122.59 106.71C126.732 105.628 130.803 104.292 134.78 102.71C146.78 97.48 150.94 92.91 150.97 88.05C151 83.19 147.03 79.58 141.02 79.42C135.01 79.26 124.46 82.14 117.02 90.71C112.15 96.3 110.15 102.4 110.07 106.99C105.85 107.99 102.07 108.83 99.57 109.26C99.57 109.26 109.71 102.32 109.34 90.37C108.97 78.42 103.75 72 90.75 62.19C77.75 52.38 64.84 43.1 62.37 36.62C59.9 30.14 63.46 21.99 69.03 17.06C74.6 12.13 85.03 7.41 101.33 5.34C117.63 3.27 123.25 5.72 124.75 10.41C126.25 15.1 125.97 23.79 100.07 33.7C100.07 33.7 103.07 37.05 114.07 38.92C114.07 38.92 128.69 29.45 132.07 22.62C135.45 15.79 135.98 9.8 131.58 5.62C127.18 1.44 112.72 -1.3 99.58 0.620003C86.44 2.54 71.19 6.57 56.91 19.1C42.63 31.63 45.75 44.2 59.93 55.8C74.11 67.4 87.93 77.31 92.93 83.22C97.93 89.13 97.49 99.82 91.39 105.02C85.29 110.22 77.39 113.71 65.03 114.54C52.67 115.37 19.42 111.54 7.03 105.35C7.03 105.35 3.17 108.45 1.35 109.76C0.85142 110.068 0.456999 110.519 0.218019 111.054C-0.02096 111.589 -0.0934416 112.183 0.010004 112.76C0.010004 112.76 13.12 121.76 43.61 120.38C63.17 119.5 90.19 114.62 110.22 109.85C110.392 110.866 110.777 111.834 111.35 112.69C113.97 116.33 124.08 118.95 133.79 114.47C141.138 111.229 147.985 106.952 154.12 101.77C154.12 101.77 151.74 108.22 154.36 111.86C156.043 114.008 158.315 115.62 160.899 116.499C163.482 117.378 166.266 117.486 168.91 116.81C175.47 115.01 180.91 110.23 184.18 105.9C184.18 105.9 182.32 115.25 189.18 116.84C196.04 118.43 209.37 108.49 209.37 108.49C209.37 108.49 209.06 117.49 223.01 117.19C236.96 116.89 254.01 105.19 262.2 91.46C262.2 91.46 267.38 91.69 269.82 90.79C269.82 90.79 266.05 99.26 263.96 106.07C261.87 112.88 265.67 116.49 273.09 116.12C276.87 115.94 283.34 114.07 290.51 111.42C291.146 112.274 291.928 113.009 292.82 113.59C299.6 117.96 315.48 116.49 333.92 98.59C332.22 105.03 332.11 109.47 332.6 111.59C333.29 114.52 338.6 116.94 344.92 113.95C351.24 110.96 374.11 92.32 380.65 84.66C383.113 88.69 384.257 93.3887 383.92 98.1C383.13 105.39 380.15 109.59 376.45 109.69C372.75 109.79 368.45 104.79 363.91 104.79C359.37 104.79 357.91 110.84 363.37 112.79C368.83 114.74 380.94 116.22 387.13 110.19C393.32 104.16 395.48 98.19 392.34 91.64ZM123.34 100.45C126.73 92.45 131.69 85.45 135.79 83.2C139.89 80.95 143.66 81.72 143.56 85.73C143.46 89.74 138.96 95.62 132.16 99.57C129.065 101.192 125.82 102.508 122.47 103.5C122.61 102.452 122.885 101.427 123.29 100.45H123.34ZM188.34 92.13C185.727 97.1158 182.628 101.832 179.09 106.21C175.98 110.06 171.35 112.57 167.5 110.98C163.65 109.39 165.66 100.21 169.35 94.08C173.04 87.95 177.14 84.24 182.04 82.22C185.91 80.63 189.9 82.41 191.04 84.05C190.473 86.8457 189.535 89.553 188.25 92.1L188.34 92.13ZM299.6 104.1C298.75 98.6 305.18 87 309.08 83.42C312.98 79.84 317.23 79.42 319.35 81.52C321.47 83.62 319.72 91.96 312.64 96.88C308.49 99.6255 304.13 102.04 299.6 104.1Z" fill="#604DB8"/>
</g>
<defs>
<clipPath id="clip0_31_3">
<rect width="396.69" height="120.55" fill="white"/>
</clipPath>
</defs>
</svg>
