<svg id="visual" viewBox="0 0 1920 420" width="1920" height="420" xmlns="http://www.w3.org/2000/svg" xmlns:xlink="http://www.w3.org/1999/xlink" version="1.1"><rect x="0" y="0" width="1920" height="420" fill="#fff"></rect><defs><linearGradient id="grad1_0" x1="78.1%" y1="100%" x2="100%" y2="0%"><stop offset="-41.42857142857143%" stop-color="#00c24d" stop-opacity="1"></stop><stop offset="141.42857142857142%" stop-color="#00c24d" stop-opacity="1"></stop></linearGradient></defs><defs><linearGradient id="grad1_1" x1="78.1%" y1="100%" x2="100%" y2="0%"><stop offset="-41.42857142857143%" stop-color="#00c24d" stop-opacity="1"></stop><stop offset="141.42857142857142%" stop-color="#4ecc67" stop-opacity="1"></stop></linearGradient></defs><defs><linearGradient id="grad1_2" x1="78.1%" y1="100%" x2="100%" y2="0%"><stop offset="-41.42857142857143%" stop-color="#73d580" stop-opacity="1"></stop><stop offset="141.42857142857142%" stop-color="#4ecc67" stop-opacity="1"></stop></linearGradient></defs><defs><linearGradient id="grad1_3" x1="78.1%" y1="100%" x2="100%" y2="0%"><stop offset="-41.42857142857143%" stop-color="#73d580" stop-opacity="1"></stop><stop offset="141.42857142857142%" stop-color="#92de99" stop-opacity="1"></stop></linearGradient></defs><defs><linearGradient id="grad1_4" x1="78.1%" y1="100%" x2="100%" y2="0%"><stop offset="-41.42857142857143%" stop-color="#afe7b2" stop-opacity="1"></stop><stop offset="141.42857142857142%" stop-color="#92de99" stop-opacity="1"></stop></linearGradient></defs><defs><linearGradient id="grad1_5" x1="78.1%" y1="100%" x2="100%" y2="0%"><stop offset="-41.42857142857143%" stop-color="#afe7b2" stop-opacity="1"></stop><stop offset="141.42857142857142%" stop-color="#caefcb" stop-opacity="1"></stop></linearGradient></defs><defs><linearGradient id="grad1_6" x1="78.1%" y1="100%" x2="100%" y2="0%"><stop offset="-41.42857142857143%" stop-color="#e5f7e5" stop-opacity="1"></stop><stop offset="141.42857142857142%" stop-color="#caefcb" stop-opacity="1"></stop></linearGradient></defs><defs><linearGradient id="grad1_7" x1="78.1%" y1="100%" x2="100%" y2="0%"><stop offset="-41.42857142857143%" stop-color="#e5f7e5" stop-opacity="1"></stop><stop offset="141.42857142857142%" stop-color="#ffffff" stop-opacity="1"></stop></linearGradient></defs><defs><linearGradient id="grad2_0" x1="0%" y1="100%" x2="21.9%" y2="0%"><stop offset="-41.42857142857143%" stop-color="#00c24d" stop-opacity="1"></stop><stop offset="141.42857142857142%" stop-color="#00c24d" stop-opacity="1"></stop></linearGradient></defs><defs><linearGradient id="grad2_1" x1="0%" y1="100%" x2="21.9%" y2="0%"><stop offset="-41.42857142857143%" stop-color="#4ecc67" stop-opacity="1"></stop><stop offset="141.42857142857142%" stop-color="#00c24d" stop-opacity="1"></stop></linearGradient></defs><defs><linearGradient id="grad2_2" x1="0%" y1="100%" x2="21.9%" y2="0%"><stop offset="-41.42857142857143%" stop-color="#4ecc67" stop-opacity="1"></stop><stop offset="141.42857142857142%" stop-color="#73d580" stop-opacity="1"></stop></linearGradient></defs><defs><linearGradient id="grad2_3" x1="0%" y1="100%" x2="21.9%" y2="0%"><stop offset="-41.42857142857143%" stop-color="#92de99" stop-opacity="1"></stop><stop offset="141.42857142857142%" stop-color="#73d580" stop-opacity="1"></stop></linearGradient></defs><defs><linearGradient id="grad2_4" x1="0%" y1="100%" x2="21.9%" y2="0%"><stop offset="-41.42857142857143%" stop-color="#92de99" stop-opacity="1"></stop><stop offset="141.42857142857142%" stop-color="#afe7b2" stop-opacity="1"></stop></linearGradient></defs><defs><linearGradient id="grad2_5" x1="0%" y1="100%" x2="21.9%" y2="0%"><stop offset="-41.42857142857143%" stop-color="#caefcb" stop-opacity="1"></stop><stop offset="141.42857142857142%" stop-color="#afe7b2" stop-opacity="1"></stop></linearGradient></defs><defs><linearGradient id="grad2_6" x1="0%" y1="100%" x2="21.9%" y2="0%"><stop offset="-41.42857142857143%" stop-color="#caefcb" stop-opacity="1"></stop><stop offset="141.42857142857142%" stop-color="#e5f7e5" stop-opacity="1"></stop></linearGradient></defs><defs><linearGradient id="grad2_7" x1="0%" y1="100%" x2="21.9%" y2="0%"><stop offset="-41.42857142857143%" stop-color="#ffffff" stop-opacity="1"></stop><stop offset="141.42857142857142%" stop-color="#e5f7e5" stop-opacity="1"></stop></linearGradient></defs><g transform="translate(1920, 420)"><path d="M-378 0C-363.2 -62.9 -348.3 -125.8 -318.7 -184C-289.1 -242.2 -244.6 -295.8 -189 -327.4C-133.4 -358.9 -66.7 -368.5 0 -378L0 0Z" fill="#f2fbf2"></path><path d="M-330.7 0C-317.8 -55 -304.8 -110 -278.9 -161C-252.9 -212 -214 -258.8 -165.4 -286.4C-116.7 -314.1 -58.4 -322.4 0 -330.7L0 0Z" fill="#d7f3d8"></path><path d="M-283.5 0C-272.4 -47.2 -261.3 -94.3 -239 -138C-216.8 -181.7 -183.4 -221.9 -141.8 -245.5C-100.1 -269.2 -50 -276.3 0 -283.5L0 0Z" fill="#bdebbf"></path><path d="M-236.2 0C-227 -39.3 -217.7 -78.6 -199.2 -115C-180.7 -151.4 -152.9 -184.9 -118.1 -204.6C-83.4 -224.3 -41.7 -230.3 0 -236.2L0 0Z" fill="#a1e2a6"></path><path d="M-189 0C-181.6 -31.4 -174.2 -62.9 -159.3 -92C-144.5 -121.1 -122.3 -147.9 -94.5 -163.7C-66.7 -179.5 -33.4 -184.2 0 -189L0 0Z" fill="#83da8c"></path><path d="M-141.7 0C-136.2 -23.6 -130.6 -47.2 -119.5 -69C-108.4 -90.8 -91.7 -110.9 -70.9 -122.8C-50 -134.6 -25 -138.2 0 -141.7L0 0Z" fill="#62d073"></path><path d="M-94.5 0C-90.8 -15.7 -87.1 -31.4 -79.7 -46C-72.3 -60.6 -61.1 -74 -47.3 -81.8C-33.4 -89.7 -16.7 -92.1 0 -94.5L0 0Z" fill="#35c75a"></path><path d="M-47.2 0C-45.4 -7.9 -43.5 -15.7 -39.8 -23C-36.1 -30.3 -30.6 -37 -23.6 -40.9C-16.7 -44.9 -8.3 -46.1 0 -47.2L0 0Z" fill="#00c24d"></path></g><g transform="translate(0, 0)"><path d="M378 0C367.3 65.3 356.7 130.6 326.5 188.5C296.3 246.4 246.7 297 189 327.4C131.3 357.7 65.7 367.9 0 378L0 0Z" fill="#f2fbf2"></path><path d="M330.8 0C321.4 57.1 312.1 114.2 285.7 164.9C259.3 215.6 215.8 259.9 165.4 286.4C114.9 313 57.5 321.9 0 330.8L0 0Z" fill="#d7f3d8"></path><path d="M283.5 0C275.5 49 267.5 97.9 244.9 141.4C222.2 184.8 185 222.8 141.8 245.5C98.5 268.3 49.3 275.9 0 283.5L0 0Z" fill="#bdebbf"></path><path d="M236.3 0C229.6 40.8 222.9 81.6 204.1 117.8C185.2 154 154.2 185.6 118.1 204.6C82.1 223.6 41 229.9 0 236.3L0 0Z" fill="#a1e2a6"></path><path d="M189 0C183.7 32.6 178.3 65.3 163.2 94.2C148.2 123.2 123.3 148.5 94.5 163.7C65.7 178.9 32.8 183.9 0 189L0 0Z" fill="#83da8c"></path><path d="M141.8 0C137.7 24.5 133.7 49 122.4 70.7C111.1 92.4 92.5 111.4 70.9 122.8C49.3 134.1 24.6 137.9 0 141.8L0 0Z" fill="#62d073"></path><path d="M94.5 0C91.8 16.3 89.2 32.6 81.6 47.1C74.1 61.6 61.7 74.3 47.3 81.8C32.8 89.4 16.4 92 0 94.5L0 0Z" fill="#35c75a"></path><path d="M47.3 0C45.9 8.2 44.6 16.3 40.8 23.6C37 30.8 30.8 37.1 23.6 40.9C16.4 44.7 8.2 46 0 47.3L0 0Z" fill="#00c24d"></path></g></svg>