<svg id="visual" viewBox="0 0 1920 800" width="1920" height="800" xmlns="http://www.w3.org/2000/svg" xmlns:xlink="http://www.w3.org/1999/xlink" version="1.1"><path d="M1439 800L1416.7 766.7C1394.3 733.3 1349.7 666.7 1346.5 600C1343.3 533.3 1381.7 466.7 1397.7 400C1413.7 333.3 1407.3 266.7 1400.8 200C1394.3 133.3 1387.7 66.7 1384.3 33.3L1381 0L1920 0L1920 33.3C1920 66.7 1920 133.3 1920 200C1920 266.7 1920 333.3 1920 400C1920 466.7 1920 533.3 1920 600C1920 666.7 1920 733.3 1920 766.7L1920 800Z" fill="#ffffff"></path><path d="M1189 800L1169.8 766.7C1150.7 733.3 1112.3 666.7 1112.3 600C1112.3 533.3 1150.7 466.7 1153.8 400C1157 333.3 1125 266.7 1109 200C1093 133.3 1093 66.7 1093 33.3L1093 0L1382 0L1385.3 33.3C1388.7 66.7 1395.3 133.3 1401.8 200C1408.3 266.7 1414.7 333.3 1398.7 400C1382.7 466.7 1344.3 533.3 1347.5 600C1350.7 666.7 1395.3 733.3 1417.7 766.7L1440 800Z" fill="#edfcec"></path><path d="M805 800L779.5 766.7C754 733.3 703 666.7 706.3 600C709.7 533.3 767.3 466.7 792.8 400C818.3 333.3 811.7 266.7 789.2 200C766.7 133.3 728.3 66.7 709.2 33.3L690 0L1094 0L1094 33.3C1094 66.7 1094 133.3 1110 200C1126 266.7 1158 333.3 1154.8 400C1151.7 466.7 1113.3 533.3 1113.3 600C1113.3 666.7 1151.7 733.3 1170.8 766.7L1190 800Z" fill="#daf9d9"></path><path d="M556 800L540 766.7C524 733.3 492 666.7 495.2 600C498.3 533.3 536.7 466.7 549.5 400C562.3 333.3 549.7 266.7 533.7 200C517.7 133.3 498.3 66.7 488.7 33.3L479 0L691 0L710.2 33.3C729.3 66.7 767.7 133.3 790.2 200C812.7 266.7 819.3 333.3 793.8 400C768.3 466.7 710.7 533.3 707.3 600C704 666.7 755 733.3 780.5 766.7L806 800Z" fill="#c7f6c6"></path><path d="M0 800L0 766.7C0 733.3 0 666.7 0 600C0 533.3 0 466.7 0 400C0 333.3 0 266.7 0 200C0 133.3 0 66.7 0 33.3L0 0L480 0L489.7 33.3C499.3 66.7 518.7 133.3 534.7 200C550.7 266.7 563.3 333.3 550.5 400C537.7 466.7 499.3 533.3 496.2 600C493 666.7 525 733.3 541 766.7L557 800Z" fill="#b3f2b3"></path></svg>