<svg xmlns="http://www.w3.org/2000/svg" width="274.64" height="69.56" viewBox="0 0 274.64 69.56"><title>Asset 1</title><path d="M273.86,11.24c-17.67-.07-26.4-2.64-35.69-5.36C228.32,3,218.14,0,198,0s-30.34,3-40.2,5.88c-9.39,2.76-18.26,5.36-36.4,5.36-11.71,0-21.5-2.37-31.87-4.87C78.15,3.62,66.4.8,51.1.8S19.5,3.69,1,9.64l-.32.1V15.1l.64-.21c18.72-6.37,35-9.46,49.7-9.46,13.74,0,24.66,2.63,35.22,5.2s21.72,5.24,35.12,5.24c20.16,0,30.35-3,40.2-5.88C171,7.24,179.84,4.63,198,4.63s27,2.61,36.4,5.36c9.73,2.86,19.79,5.81,39.48,5.88h.48V11.24Z" fill="#2e3192"/><path d="M238.18,14.48c-9.86-2.88-20-5.88-40.18-5.88s-30.37,3-40.22,5.88c-9.39,2.76-18.26,5.36-36.4,5.36-11.71,0-21.5-2.37-31.87-4.87-11.36-2.75-23.1-5.6-38.4-5.6S19.51,12.26,1,18.21l-.32.1V23.7l.64-.21C20.06,17.12,36.32,14,51,14c13.74,0,24.66,2.63,35.23,5.2s21.71,5.24,35.11,5.24c20.16,0,30.35-3,40.2-5.88,9.4-2.76,18.26-5.36,36.4-5.36s27,2.6,36.4,5.36c9.73,2.85,19.79,5.81,39.48,5.88h.48V19.84h-.47C256.2,19.77,247.44,17.2,238.18,14.48Z" fill="#2e3192"/><path d="M24,64.32a1.46,1.46,0,0,0-1.26-.67c-.75,0-1.11.35-1.11.8s.55.67,1.2.76c1.11.15,2.15.48,2.15,1.93s-1.06,1.92-2.24,1.92a2.19,2.19,0,0,1-2.33-1.48l.84-.5a1.48,1.48,0,0,0,1.5,1c.63,0,1.23-.25,1.23-.9s-.53-.8-1.24-.89c-1.09-.15-2.1-.48-2.1-1.83a1.86,1.86,0,0,1,2.07-1.77,2.11,2.11,0,0,1,2.1,1.2Z" fill="#2e3192" stroke="#2e3192" stroke-miterlimit="10"/><path d="M34.8,68.91h-4v-6h4V64h-3v1.39h2.89v1.06H31.8v1.37h3Z" fill="#2e3192" stroke="#2e3192" stroke-miterlimit="10"/><path d="M44.44,67.77h-2.8l-.44,1.14H40.11l2.4-6H43.6l2.4,6H44.9Zm-1.39-3.64-1,2.58h2Z" fill="#2e3192" stroke="#2e3192" stroke-miterlimit="10"/><path d="M58.07,68.91v-6h1v6Z" fill="#2e3192" stroke="#2e3192" stroke-miterlimit="10"/><path d="M68.54,64.32a1.45,1.45,0,0,0-1.26-.67c-.75,0-1.11.35-1.11.8s.55.67,1.2.76c1.12.15,2.15.48,2.15,1.93s-1,1.92-2.24,1.92A2.18,2.18,0,0,1,65,67.58l.84-.5a1.48,1.48,0,0,0,1.5,1c.63,0,1.22-.25,1.22-.9s-.52-.8-1.23-.89c-1.09-.15-2.1-.48-2.1-1.83a1.86,1.86,0,0,1,2.07-1.77,2.11,2.11,0,0,1,2.1,1.2Z" fill="#2e3192" stroke="#2e3192" stroke-miterlimit="10"/><path d="M76.38,62.86v5h2.74v1H75.37v-6Z" fill="#2e3192" stroke="#2e3192" stroke-miterlimit="10"/><path d="M88.89,68.91h-4v-6h4V64h-3v1.39h2.9v1.06H85.91v1.37h3Z" fill="#2e3192" stroke="#2e3192" stroke-miterlimit="10"/><path d="M106.08,68.15a2.69,2.69,0,0,1-2,.9c-2,0-2.83-1.55-2.83-3.12a2.91,2.91,0,0,1,2.83-3.2,2.61,2.61,0,0,1,2,.93l-.67.74a1.76,1.76,0,0,0-1.29-.57,1.89,1.89,0,0,0-1.84,2.1,1.82,1.82,0,0,0,3.18,1.43Z" fill="#2e3192" stroke="#2e3192" stroke-miterlimit="10"/><path d="M111.73,68.91v-6h1v6Z" fill="#2e3192" stroke="#2e3192" stroke-miterlimit="10"/><path d="M120.4,63.9h-1.7v-1h4.4v1h-1.69v5h-1Z" fill="#2e3192" stroke="#2e3192" stroke-miterlimit="10"/><path d="M131.34,65.36l1.42-2.5H134v.06l-2.11,3.48v2.5h-1V66.4l-2-3.48v-.06H130Z" fill="#2e3192" stroke="#2e3192" stroke-miterlimit="10"/><path d="M146,65.6h2.8v1H146Z" fill="#2e3192" stroke="#2e3192" stroke-miterlimit="10"/><path d="M164.8,62.85h1v6.06h-.61l-2.8-4.09V68.9h-1v-6h.8l2.62,3.75Z" fill="#2e3192" stroke="#2e3192" stroke-miterlimit="10"/><path d="M175.81,68.91h-4v-6h4V64h-3v1.39h2.89v1.06H172.8v1.37h3Z" fill="#2e3192" stroke="#2e3192" stroke-miterlimit="10"/><path d="M187.51,68.91h-.86L186,67l-.56-1.91L184.88,67l-.65,1.88h-.85l-2-6h1.12l1.26,4.37,1.3-4.37h.66l1.33,4.37,1.22-4.37h1.13Z" fill="#2e3192" stroke="#2e3192" stroke-miterlimit="10"/><path d="M206.22,66.33a2.4,2.4,0,0,1-2.35,2.7,2.31,2.31,0,0,1-2.34-2.63h1c0,1,.44,1.56,1.35,1.56s1.35-.72,1.35-1.63v-2.4h-1.6V62.87h2.62Z" fill="#2e3192" stroke="#2e3192" stroke-miterlimit="10"/><path d="M216.23,68.91h-4v-6h4V64h-3v1.39h2.89v1.06h-2.89v1.37h3Z" fill="#2e3192" stroke="#2e3192" stroke-miterlimit="10"/><path d="M226.82,68.91h-1.2l-1.55-2h-1v2h-1V62.85h2.54a1.89,1.89,0,0,1,1.93,1.84v.16a1.76,1.76,0,0,1-1.36,1.9l1.6,2.07Zm-3.72-5v1.94h1.53a1,1,0,0,0,0-1.94Z" fill="#2e3192" stroke="#2e3192" stroke-miterlimit="10"/><path d="M235.84,64.32a1.45,1.45,0,0,0-1.26-.67c-.75,0-1.11.35-1.11.8s.55.67,1.2.76c1.11.15,2.15.48,2.15,1.93s-1,1.92-2.24,1.92a2.2,2.2,0,0,1-2.33-1.48l.84-.5a1.5,1.5,0,0,0,1.51,1c.63,0,1.22-.25,1.22-.9s-.52-.8-1.23-.89c-1.09-.15-2.1-.48-2.1-1.83a1.86,1.86,0,0,1,2.07-1.77,2.09,2.09,0,0,1,2.09,1.2Z" fill="#2e3192" stroke="#2e3192" stroke-miterlimit="10"/><path d="M246.65,68.91h-4v-6h4V64h-3v1.39h2.89v1.06h-2.89v1.37h3Z" fill="#2e3192" stroke="#2e3192" stroke-miterlimit="10"/><path d="M254.92,65.36l1.42-2.5h1.2v.06l-2.12,3.48v2.5h-1V66.4l-2.05-3.5v0h1.2Z" fill="#2e3192" stroke="#2e3192" stroke-miterlimit="10"/><path d="M130.82,27.39c-1.74.09-3.58.16-5.5.2l5.5,7.31Z" fill="none"/><path d="M11.63,32.66A4.6,4.6,0,0,0,8.3,34.08a4.66,4.66,0,0,0-.13,6.6l.11.12a4.61,4.61,0,0,0,6.52.14l.14-.14a4.6,4.6,0,0,0,.21-6.51l-.21-.21A4.55,4.55,0,0,0,11.63,32.66Z" fill="none"/><polygon points="100.45 40.62 98.58 33.21 96.71 40.62 100.45 40.62" fill="none"/><path d="M40.7,58.5q-5.21,0-9.05-4.65a17.57,17.57,0,0,1-4-11.64,17.52,17.52,0,0,1,4-11.63Q35.52,25.95,40.7,26h10V36.11h-10a4.13,4.13,0,0,0-3.33,1.81,7.17,7.17,0,0,0,0,8.6,4.13,4.13,0,0,0,3.34,1.82h13V58.5Z" fill="#2e3192"/><path d="M56.26,58.5V36.1h-3V26h27.6V36.11H65.47v1.83h9.2V46.5h-9.2v1.84H80.8V58.5Z" fill="#2e3192"/><path d="M13,26q-5.17,0-9,4.63A17.65,17.65,0,0,0,0,42.21,17.68,17.68,0,0,0,4,53.85q3.82,4.65,9,4.65t9-4.65a17.57,17.57,0,0,0,4-11.64,17.52,17.52,0,0,0-4-11.63Q18.21,25.95,13,26Zm3.3,20.57A4.09,4.09,0,0,1,13,48.34a4.23,4.23,0,0,1-3.35-1.82,7.22,7.22,0,0,1,0-8.6A4.18,4.18,0,0,1,13,36.11a4.1,4.1,0,0,1,3.3,1.81A7.05,7.05,0,0,1,16.34,46.52Z" fill="#2e3192"/><path d="M83.14,26V36.11h7.44l-4.4,22.4h9.51l.8-4.08h7l.8,4.08h9.51l-6-30.2c-3.6-.63-7-1.45-10.37-2.35Zm18.72,20.34H98.12L100,36.8Z" fill="#2e3192"/><path d="M132.23,39l-5.51-9.37c-1.27,0-2.58,0-3.93,0A83.28,83.28,0,0,1,112.32,29v7.13h3v22.4h9.2v-13l7.66,13h9.2V28.34c-2.8.44-5.84.8-9.2,1Z" fill="#2e3192"/><path d="M180,42.21a17.62,17.62,0,0,1-4,11.64q-3.84,4.65-9.05,4.65h-13V36.1h-3V26h16.08q5.19,0,9,4.63A17.65,17.65,0,0,1,180,42.21Zm-8.28,0a6.7,6.7,0,0,0-1.45-4.3,4.12,4.12,0,0,0-3.31-1.81h-4.44V48.33h4.44a4.13,4.13,0,0,0,3.32-1.82,6.72,6.72,0,0,0,1.44-4.29Z" fill="#00aeef"/><path d="M201.18,58.5c-2.07,0-4.11-1.36-6.14-4.07l-4.3-5.69V58.5h-9.2V41h15a1.6,1.6,0,0,0,1.27-.72,2.9,2.9,0,0,0,0-3.43,1.52,1.52,0,0,0-1.27-.74H178.5V26H199a7.6,7.6,0,0,1,6,3.27,12.08,12.08,0,0,1,2.58,7.71,13,13,0,0,1-1.47,6.13,8.81,8.81,0,0,1-3.8,4,1.75,1.75,0,0,0,1.6,1.29h5.2V58.51Z" fill="#00aeef"/><path d="M210.72,58.5V36.1h-3V26h12.25V58.5Z" fill="#00aeef"/><polygon points="242.66 58.5 238.98 58.5 235.3 58.5 231.62 58.5 227.94 58.5 226.83 52.9 225.72 47.3 224.62 41.7 223.51 36.11 222.25 36.11 220.98 36.11 219.72 36.11 218.46 36.11 218.46 33.57 218.46 31.03 218.46 28.49 218.46 25.95 221.6 25.95 224.73 25.95 227.87 25.95 231.01 25.95 232.08 31.37 233.16 36.79 234.23 42.21 235.31 47.63 236.38 42.21 237.46 36.79 238.53 31.37 239.6 25.95 241.98 25.95 244.36 25.95 246.74 25.95 249.05 26.48 247.5 34.09 245.89 42.22 244.28 50.36 242.66 58.5" fill="#00aeef"/><path d="M247.05,36.06h3v22.4h24.55V48.3H259.3V46.46h9.2V37.89h-9.2V36.06h15.34V29.6A119.33,119.33,0,0,1,259,28.5a87.66,87.66,0,0,1-11.9-2.5Z" fill="#00aeef"/></svg>