<svg id="visual" viewBox="0 0 900 600" width="900" height="600" xmlns="http://www.w3.org/2000/svg" xmlns:xlink="http://www.w3.org/1999/xlink" version="1.1"><rect x="0" y="0" width="900" height="600" fill="#4B0082"></rect><path d="M0 173L21.5 182.2C43 191.3 86 209.7 128.8 226.5C171.7 243.3 214.3 258.7 257.2 254.7C300 250.7 343 227.3 385.8 221.8C428.7 216.3 471.3 228.7 514.2 246.3C557 264 600 287 642.8 275.2C685.7 263.3 728.3 216.7 771.2 235.2C814 253.7 857 337.3 878.5 379.2L900 421L900 601L878.5 601C857 601 814 601 771.2 601C728.3 601 685.7 601 642.8 601C600 601 557 601 514.2 601C471.3 601 428.7 601 385.8 601C343 601 300 601 257.2 601C214.3 601 171.7 601 128.8 601C86 601 43 601 21.5 601L0 601Z" fill="#FF4500"></path></svg>