<svg id="visual" viewBox="0 0 900 600" width="900" height="600" xmlns="http://www.w3.org/2000/svg" xmlns:xlink="http://www.w3.org/1999/xlink" version="1.1"><path d="M0 241L13.7 235C27.3 229 54.7 217 82 198C109.3 179 136.7 153 163.8 157C191 161 218 195 245.2 216C272.3 237 299.7 245 327 233C354.3 221 381.7 189 409 178C436.3 167 463.7 177 491 172C518.3 167 545.7 147 573 147C600.3 147 627.7 167 654.8 183C682 199 709 211 736.2 193C763.3 175 790.7 127 818 109C845.3 91 872.7 103 886.3 109L900 115L900 0L886.3 0C872.7 0 845.3 0 818 0C790.7 0 763.3 0 736.2 0C709 0 682 0 654.8 0C627.7 0 600.3 0 573 0C545.7 0 518.3 0 491 0C463.7 0 436.3 0 409 0C381.7 0 354.3 0 327 0C299.7 0 272.3 0 245.2 0C218 0 191 0 163.8 0C136.7 0 109.3 0 82 0C54.7 0 27.3 0 13.7 0L0 0Z" fill="#8000ff"></path><path d="M0 397L13.7 381C27.3 365 54.7 333 82 308C109.3 283 136.7 265 163.8 262C191 259 218 271 245.2 287C272.3 303 299.7 323 327 329C354.3 335 381.7 327 409 310C436.3 293 463.7 267 491 261C518.3 255 545.7 269 573 275C600.3 281 627.7 279 654.8 282C682 285 709 293 736.2 276C763.3 259 790.7 217 818 201C845.3 185 872.7 195 886.3 200L900 205L900 113L886.3 107C872.7 101 845.3 89 818 107C790.7 125 763.3 173 736.2 191C709 209 682 197 654.8 181C627.7 165 600.3 145 573 145C545.7 145 518.3 165 491 170C463.7 175 436.3 165 409 176C381.7 187 354.3 219 327 231C299.7 243 272.3 235 245.2 214C218 193 191 159 163.8 155C136.7 151 109.3 177 82 196C54.7 215 27.3 227 13.7 233L0 239Z" fill="#c400d9"></path><path d="M0 451L13.7 439C27.3 427 54.7 403 82 384C109.3 365 136.7 351 163.8 350C191 349 218 361 245.2 374C272.3 387 299.7 401 327 399C354.3 397 381.7 379 409 365C436.3 351 463.7 341 491 340C518.3 339 545.7 347 573 350C600.3 353 627.7 351 654.8 355C682 359 709 369 736.2 356C763.3 343 790.7 307 818 285C845.3 263 872.7 255 886.3 251L900 247L900 203L886.3 198C872.7 193 845.3 183 818 199C790.7 215 763.3 257 736.2 274C709 291 682 283 654.8 280C627.7 277 600.3 279 573 273C545.7 267 518.3 253 491 259C463.7 265 436.3 291 409 308C381.7 325 354.3 333 327 327C299.7 321 272.3 301 245.2 285C218 269 191 257 163.8 260C136.7 263 109.3 281 82 306C54.7 331 27.3 363 13.7 379L0 395Z" fill="#e500b8"></path><path d="M0 547L13.7 540C27.3 533 54.7 519 82 521C109.3 523 136.7 541 163.8 551C191 561 218 563 245.2 560C272.3 557 299.7 549 327 544C354.3 539 381.7 537 409 531C436.3 525 463.7 515 491 519C518.3 523 545.7 541 573 550C600.3 559 627.7 559 654.8 551C682 543 709 527 736.2 518C763.3 509 790.7 507 818 511C845.3 515 872.7 525 886.3 530L900 535L900 245L886.3 249C872.7 253 845.3 261 818 283C790.7 305 763.3 341 736.2 354C709 367 682 357 654.8 353C627.7 349 600.3 351 573 348C545.7 345 518.3 337 491 338C463.7 339 436.3 349 409 363C381.7 377 354.3 395 327 397C299.7 399 272.3 385 245.2 372C218 359 191 347 163.8 348C136.7 349 109.3 363 82 382C54.7 401 27.3 425 13.7 437L0 449Z" fill="#f6009b"></path><path d="M0 601L13.7 601C27.3 601 54.7 601 82 601C109.3 601 136.7 601 163.8 601C191 601 218 601 245.2 601C272.3 601 299.7 601 327 601C354.3 601 381.7 601 409 601C436.3 601 463.7 601 491 601C518.3 601 545.7 601 573 601C600.3 601 627.7 601 654.8 601C682 601 709 601 736.2 601C763.3 601 790.7 601 818 601C845.3 601 872.7 601 886.3 601L900 601L900 533L886.3 528C872.7 523 845.3 513 818 509C790.7 505 763.3 507 736.2 516C709 525 682 541 654.8 549C627.7 557 600.3 557 573 548C545.7 539 518.3 521 491 517C463.7 513 436.3 523 409 529C381.7 535 354.3 537 327 542C299.7 547 272.3 555 245.2 558C218 561 191 559 163.8 549C136.7 539 109.3 521 82 519C54.7 517 27.3 531 13.7 538L0 545Z" fill="#ff0080"></path></svg>