<svg id="visual" viewBox="0 0 900 600" width="900" height="600" xmlns="http://www.w3.org/2000/svg" xmlns:xlink="http://www.w3.org/1999/xlink" version="1.1"><rect x="0" y="0" width="900" height="600" fill="#222222"></rect><path d="M0 114L129 200L257 123L386 284L514 201L643 279L771 284L900 202L900 601L771 601L643 601L514 601L386 601L257 601L129 601L0 601Z" fill="#ff6e60"></path><path d="M0 231L129 342L257 343L386 231L514 313L643 330L771 199L900 310L900 601L771 601L643 601L514 601L386 601L257 601L129 601L0 601Z" fill="#ff4938"></path><path d="M0 309L129 321L257 286L386 282L514 414L643 329L771 413L900 352L900 601L771 601L643 601L514 601L386 601L257 601L129 601L0 601Z" fill="#ff0000"></path><path d="M0 454L129 396L257 372L386 470L514 435L643 391L771 423L900 367L900 601L771 601L643 601L514 601L386 601L257 601L129 601L0 601Z" fill="#de000b"></path><path d="M0 526L129 470L257 524L386 531L514 508L643 520L771 541L900 480L900 601L771 601L643 601L514 601L386 601L257 601L129 601L0 601Z" fill="#bd0010"></path></svg>