<svg id="visual" viewBox="0 0 900 600" width="900" height="600" xmlns="http://www.w3.org/2000/svg" xmlns:xlink="http://www.w3.org/1999/xlink" version="1.1"><rect x="0" y="0" width="900" height="600" fill="#2C3E50"></rect><defs><linearGradient id="grad1_0" x1="33.3%" y1="0%" x2="100%" y2="100%"><stop offset="20%" stop-color="#2c3e50" stop-opacity="1"></stop><stop offset="80%" stop-color="#2c3e50" stop-opacity="1"></stop></linearGradient></defs><defs><linearGradient id="grad2_0" x1="0%" y1="0%" x2="66.7%" y2="100%"><stop offset="20%" stop-color="#2c3e50" stop-opacity="1"></stop><stop offset="80%" stop-color="#2c3e50" stop-opacity="1"></stop></linearGradient></defs><g transform="translate(900, 0)"><path d="M0 378.6C-24.2 296.5 -48.3 214.4 -111.5 193.1C-174.7 171.8 -276.8 211.3 -327.9 189.3C-378.9 167.2 -378.7 83.6 -378.6 0L0 0Z" fill="#C19A6B"></path></g><g transform="translate(0, 600)"><path d="M0 -378.6C63.4 -364.4 126.7 -350.2 185 -320.4C243.3 -290.7 296.4 -245.3 327.9 -189.3C359.3 -133.3 368.9 -66.6 378.6 0L0 0Z" fill="#C19A6B"></path></g></svg>