<svg id="visual" viewBox="0 0 900 600" width="900" height="600" xmlns="http://www.w3.org/2000/svg" xmlns:xlink="http://www.w3.org/1999/xlink" version="1.1"><rect x="0" y="0" width="900" height="600" fill="#00D4FF"></rect><path d="M0 591L50 505.5C100 420 200 249 300 189.7C400 130.3 500 182.7 600 226.2C700 269.7 800 304.3 850 321.7L900 339L900 601L850 601C800 601 700 601 600 601C500 601 400 601 300 601C200 601 100 601 50 601L0 601Z" fill="#ff76ae"></path><path d="M0 350L50 379.7C100 409.3 200 468.7 300 492.7C400 516.7 500 505.3 600 462.2C700 419 800 344 850 306.5L900 269L900 601L850 601C800 601 700 601 600 601C500 601 400 601 300 601C200 601 100 601 50 601L0 601Z" fill="#ff007f"></path><path d="M0 526L50 537.3C100 548.7 200 571.3 300 565.8C400 560.3 500 526.7 600 523.3C700 520 800 547 850 560.5L900 574L900 601L850 601C800 601 700 601 600 601C500 601 400 601 300 601C200 601 100 601 50 601L0 601Z" fill="#ba005f"></path></svg>